<svg xmlns="http://www.w3.org/2000/svg" xmlns:xlink="http://www.w3.org/1999/xlink" viewBox="0 0 643.29 240"><defs><style>.cls-1{fill:#020202;stroke:#1fde70;stroke-miterlimit:10;stroke-width:2px;}.cls-2{fill:url(#linear-gradient);}.cls-3{fill:url(#linear-gradient-2);}.cls-4{fill:url(#linear-gradient-3);}.cls-5{fill:url(#linear-gradient-4);}.cls-6{fill:url(#linear-gradient-5);}.cls-7{fill:url(#linear-gradient-6);}.cls-8{fill:url(#linear-gradient-7);}.cls-9{fill:url(#linear-gradient-8);}.cls-10{fill:url(#linear-gradient-9);}.cls-11{fill:url(#linear-gradient-10);}.cls-12{fill:url(#linear-gradient-11);}.cls-13{fill:url(#linear-gradient-12);}.cls-14{fill:url(#linear-gradient-13);}</style><linearGradient id="linear-gradient" x1="770.38" y1="-343.49" x2="713.05" y2="-310.38" gradientTransform="translate(-221.73 78.45) rotate(25.82)" gradientUnits="userSpaceOnUse"><stop offset="0.31" stop-color="#ffd200"/><stop offset="0.39" stop-color="#ffc905"/><stop offset="0.53" stop-color="#ffaf11"/><stop offset="0.71" stop-color="#ff8626"/><stop offset="0.74" stop-color="#ff7d2a"/><stop offset="0.99" stop-color="#ff3e49"/></linearGradient><linearGradient id="linear-gradient-2" x1="221.62" y1="99.79" x2="221.62" y2="57.29" gradientUnits="userSpaceOnUse"><stop offset="0.18" stop-color="#ffd200"/><stop offset="0.24" stop-color="#ffc905"/><stop offset="0.34" stop-color="#ffaf11"/><stop offset="0.47" stop-color="#ff8626"/><stop offset="0.49" stop-color="#ff7d2a"/><stop offset="0.99" stop-color="#ff3e49"/></linearGradient><linearGradient id="linear-gradient-3" x1="272.62" y1="99.79" x2="272.62" y2="57.29" xlink:href="#linear-gradient-2"/><linearGradient id="linear-gradient-4" x1="323.62" y1="99.79" x2="323.62" y2="57.29" xlink:href="#linear-gradient-2"/><linearGradient id="linear-gradient-5" x1="374.62" y1="99.79" x2="374.62" y2="57.29" xlink:href="#linear-gradient-2"/><linearGradient id="linear-gradient-6" x1="421.37" y1="99.79" x2="421.37" y2="57.29" xlink:href="#linear-gradient-2"/><linearGradient id="linear-gradient-7" x1="167.05" y1="159.79" x2="167.05" y2="117.29" xlink:href="#linear-gradient-2"/><linearGradient id="linear-gradient-8" x1="222.3" y1="159.79" x2="222.3" y2="117.29" xlink:href="#linear-gradient-2"/><linearGradient id="linear-gradient-9" x1="273.3" y1="159.79" x2="273.3" y2="117.29" xlink:href="#linear-gradient-2"/><linearGradient id="linear-gradient-10" x1="320.05" y1="159.79" x2="320.05" y2="117.29" xlink:href="#linear-gradient-2"/><linearGradient id="linear-gradient-11" x1="371.05" y1="159.79" x2="371.05" y2="117.29" xlink:href="#linear-gradient-2"/><linearGradient id="linear-gradient-12" x1="426.3" y1="159.79" x2="426.3" y2="117.29" xlink:href="#linear-gradient-2"/><linearGradient id="linear-gradient-13" x1="477.3" y1="159.79" x2="477.3" y2="117.29" xlink:href="#linear-gradient-2"/></defs><g id="Layer_2" data-name="Layer 2"><rect x="-0.18" width="643" height="240"/><path class="cls-1" d="M549.31,107.34,128.82,43c-29,50-96,155-96,155S503.44,115.62,549.31,107.34Z"/><path class="cls-2" d="M577.17,107.77c.11,4.84-3.54,8.32-8.88,8.44-3.41.08-8.62-3.22-13.08-7.93,4.22-4.9,9.27-8.46,12.7-8.54C573.25,99.62,577.05,102.92,577.17,107.77Zm-6.21.14a2.77,2.77,0,0,0-3.09-2.67c-1.14,0-2.82,1.21-4.23,2.84,1.49,1.57,3.22,2.67,4.36,2.65A2.77,2.77,0,0,0,571,107.91Zm45.45,5.69c-6.64,7-14.42,7.58-22.34,6l-6.76,7.09a4.94,4.94,0,0,1-4.57,1.19l-9.9-3a2.77,2.77,0,0,1-.89-.52,2.26,2.26,0,0,1-.07-3.19l6.73-7.05a9,9,0,0,0-.29-12.72l-7.06-6.73a2.27,2.27,0,0,1-.07-3.19,2.76,2.76,0,0,1,.87-.56l9.74-3.5a4.93,4.93,0,0,1,4.62,1l7.07,6.75c7.85-1.95,15.62-1.69,22.62,5a34,34,0,0,1,5.13,5.8,1.67,1.67,0,0,1,0,1.65A33.26,33.26,0,0,1,616.41,113.6Zm-3.25-3.11a38,38,0,0,0,3.18-3.63,35.5,35.5,0,0,0-3.34-3.48c-4.93-4.7-10.44-5.87-18.42-3.89-2.77.69-1,.09-10,3.37a13.51,13.51,0,0,1,.22,9.46c9.17,2.86,7.35,2.34,10.11,2.89C603,116.8,608.48,115.39,613.16,110.49Zm-6.53-.75a3.75,3.75,0,1,1-.13-5.3A3.77,3.77,0,0,1,606.63,109.74Z"/><path d="M225.12,95.29v-8.5h-17v-8.5h-8.5v-8.5h8.5v8.5h17v8.5h8.5v8.5Zm-25.5,0h25.5v8.5h-25.5Zm8.5-25.5v-8.5h25.5v8.5Z"/><path d="M250.62,61.29h25.5v8.5h8.5v8.5h-8.5v8.5h-17v17h-8.5Zm8.5,17h16.66v-8.5H259.12Z"/><path d="M327.12,86.79h-17v17h-8.5v-34h8.5v-8.5h17v8.5h8.5v34h-8.5Zm0-8.5V70.13h-17v8.16Z"/><path d="M361.12,95.29h-8.5V69.79h8.5v25.5h17v8.5h-17Zm0-25.5v-8.5h17v8.5h8.5v8.5h-8.5v-8.5Zm17,25.5v-8.5h8.5v8.5Z"/><path d="M403.62,61.29h25.5v8.5h-17v8.5h17v8.5h-17v8.5h17v8.5h-25.5Z"/><path d="M170.55,146.79h-17v17h-8.5v-34h8.5v-8.5h17v8.5h8.5v34h-8.5Zm0-8.5v-8.16h-17v8.16Z"/><path d="M204.55,155.29h-8.5v-34h8.5v34h8.5v8.5h-8.5Zm8.5,0v-25.5h8.5v25.5h8.5v8.5h-8.5v-8.5Zm17,0v-34h8.5v34Z"/><path d="M255.55,121.29h25.5v8.5h-17v8.5h17v8.5h-17v8.5h17v8.5h-25.5Z"/><path d="M323.55,155.29v-8.5h-17v-8.5h-8.5v-8.5h8.5v8.5h17v8.5h8.5v8.5Zm-25.5,0h25.5v8.5h-25.5Zm8.5-25.5v-8.5h25.5v8.5Z"/><path d="M349.05,129.79h8.5v-8.5h17v8.5h8.5v25.5h-8.5v8.5h-17v-8.5h-8.5Zm8.5,25.16h17V130.13h-17Z"/><path d="M400.05,121.29h8.5v8.5h8.5v8.5h8.5v8.5h-8.5v-8.5h-8.5v25.5h-8.5Zm25.5,17v-8.5h8.5v-8.5h8.5v42.5h-8.5v-25.5Z"/><path d="M459.55,121.29h25.5v8.5h-17v8.5h17v8.5h-17v8.5h17v8.5h-25.5Z"/><path class="cls-3" d="M230.12,91.29v-8.5h-17v-8.5h-8.5v-8.5h8.5v8.5h17v8.5h8.5v8.5Zm-25.5,0h25.5v8.5h-25.5Zm8.5-25.5v-8.5h25.5v8.5Z"/><path class="cls-4" d="M255.62,57.29h25.5v8.5h8.5v8.5h-8.5v8.5h-17v17h-8.5Zm8.5,17h16.66v-8.5H264.12Z"/><path class="cls-5" d="M332.12,82.79h-17v17h-8.5v-34h8.5v-8.5h17v8.5h8.5v34h-8.5Zm0-8.5V66.13h-17v8.16Z"/><path class="cls-6" d="M366.12,91.29h-8.5V65.79h8.5v25.5h17v8.5h-17Zm0-25.5v-8.5h17v8.5h8.5v8.5h-8.5v-8.5Zm17,25.5v-8.5h8.5v8.5Z"/><path class="cls-7" d="M408.62,57.29h25.5v8.5h-17v8.5h17v8.5h-17v8.5h17v8.5h-25.5Z"/><path class="cls-8" d="M175.55,142.79h-17v17h-8.5v-34h8.5v-8.5h17v8.5h8.5v34h-8.5Zm0-8.5v-8.16h-17v8.16Z"/><path class="cls-9" d="M209.55,151.29h-8.5v-34h8.5v34h8.5v8.5h-8.5Zm8.5,0v-25.5h8.5v25.5h8.5v8.5h-8.5v-8.5Zm17,0v-34h8.5v34Z"/><path class="cls-10" d="M260.55,117.29h25.5v8.5h-17v8.5h17v8.5h-17v8.5h17v8.5h-25.5Z"/><path class="cls-11" d="M328.55,151.29v-8.5h-17v-8.5h-8.5v-8.5h8.5v8.5h17v8.5h8.5v8.5Zm-25.5,0h25.5v8.5h-25.5Zm8.5-25.5v-8.5h25.5v8.5Z"/><path class="cls-12" d="M354.05,125.79h8.5v-8.5h17v8.5h8.5v25.5h-8.5v8.5h-17v-8.5h-8.5Zm8.5,25.16h17V126.13h-17Z"/><path class="cls-13" d="M405.05,117.29h8.5v8.5h8.5v8.5h8.5v8.5h-8.5v-8.5h-8.5v25.5h-8.5Zm25.5,17v-8.5h8.5v-8.5h8.5v42.5h-8.5v-25.5Z"/><path class="cls-14" d="M464.55,117.29h25.5v8.5h-17v8.5h17v8.5h-17v8.5h17v8.5h-25.5Z"/></g></svg>