<?xml version="1.0" encoding="utf-8"?>
<!-- Generator: Adobe Illustrator 17.0.0, SVG Export Plug-In . SVG Version: 6.00 Build 0)  -->
<!DOCTYPE svg PUBLIC "-//W3C//DTD SVG 1.1//EN" "http://www.w3.org/Graphics/SVG/1.1/DTD/svg11.dtd">
<svg version="1.1" xmlns="http://www.w3.org/2000/svg" xmlns:xlink="http://www.w3.org/1999/xlink" x="0px" y="0px" width="700px"
	 height="466.667px" viewBox="0 0 700 466.667" enable-background="new 0 0 700 466.667" xml:space="preserve">
<g id="Flag">
	<rect id="Blue" x="0" y="0" fill="#022986" width="229.5" height="466.667"/>
	<rect id="White" x="229.525" y="0" fill="#FFFFFF" width="240.95" height="466.667"/>
	<rect id="Red" x="470.5" y="0" fill="#AD0A25" width="229.5" height="466.667"/>
</g>
<g id="Design">
	<g>
		<path d="M324.204,316.442V170.243c0-30.061,24.456-54.516,54.517-54.516h8.393c30.061,0,54.517,24.456,54.517,54.516v10.78
			l6.833-13.69l0,0c0-33.92-27.43-58.606-61.35-58.606h-8.393c-33.92,0-61.517,27.596-61.517,61.516l0.046,133.661L324.204,316.442z
			"/>
		<path d="M387.113,123.727h-8.393c-25.649,0-46.517,20.867-46.517,46.516v160.513l7,12.525V170.243
			c0-21.789,17.727-39.516,39.517-39.516h8.393c21.789,0,39.517,17.727,39.517,39.516v40.832l7-14.024v-26.807
			C433.63,144.595,412.762,123.727,387.113,123.727z"/>
		<path d="M354.011,357.738l0.193-187.495c0-13.518,10.998-24.516,24.517-24.516h8.393c13.519,0,24.517,10.998,24.517,24.516v70.884
			l7-14.024v-56.859c0-17.378-14.139-31.516-31.517-31.516h-8.393c-17.378,0-31.517,14.138-31.517,31.516v187.436"/>
		<path d="M255.699,179.336l2.838,5.71v-14.803c0-30.061,24.456-54.516,54.516-54.516h8.393c30.061,0,54.516,24.456,54.516,54.516
			l0.002,147.883l6.868-12.393l0.129-135.49c0-33.92-27.596-61.516-61.516-61.516h-8.393c-33.92,0-61.516,27.596-61.516,61.516
			v0.719L255.699,179.336z"/>
		<path d="M273.537,215.227v-44.983c0-21.789,17.727-39.516,39.516-39.516h8.393c21.789,0,39.516,17.727,39.516,39.516
			l-0.035,175.015l7.035-12.693V170.243c0-25.649-20.867-46.516-46.516-46.516h-8.393c-25.649,0-46.516,20.867-46.516,46.516v30.899
			l2.777,5.587L273.537,215.227z"/>
		<path d="M354.011,357.738l0.193-187.495c0-13.518,10.998-24.516,24.517-24.516h8.393c13.519,0,24.517,10.998,24.517,24.516v70.884
			l7-14.024v-56.859c0-17.378-14.139-31.516-31.517-31.516h-8.393c-12.289,0-22.95,7.074-28.145,17.36
			c-5.558-10.286-16.84-17.36-29.129-17.36h-8.393c-17.378,0-31.516,14.138-31.516,31.516v61.079l7,14.084v-75.163
			c0-13.518,10.998-24.516,24.516-24.516h8.393c13.518,0,25.757,10.998,25.757,24.516v187.321"/>
		<path d="M347.204,357.327"/>
		<path fill="none" stroke="#FF0000" stroke-miterlimit="10" d="M361.378,382.956"/>
		<path d="M354.011,357.738"/>
		<polyline points="354.011,357.738 350.65,363.738 347.204,357.679 		"/>
	</g>
</g>
<g id="Layer_4">
	<g>
		<path d="M252.081,59.821c-0.198,0.034-0.396,0.077-0.593,0.128c-0.198,0.051-0.395,0.085-0.592,0.103
			c-0.218,0.034-0.425,0.06-0.622,0.077c-0.198,0.017-0.396,0.025-0.593,0.025c-1.461,0-2.755-0.59-3.88-1.771
			c-1.126-1.181-1.689-3.406-1.689-6.675c0-3.458,0.494-5.811,1.481-7.061c0.987-1.249,2.291-1.874,3.91-1.874
			c0.257,0,0.528,0.013,0.815,0.039c0.286,0.025,0.578,0.064,0.874,0.115c0.098,0.018,0.207,0.035,0.326,0.051
			c0.119,0.018,0.237,0.035,0.355,0.052v2.105c-0.079-0.017-0.153-0.039-0.222-0.064c-0.069-0.026-0.144-0.047-0.222-0.064
			c-0.257-0.068-0.509-0.12-0.755-0.154c-0.247-0.034-0.469-0.051-0.667-0.051c-1.027,0-1.827,0.526-2.4,1.579
			s-0.859,2.769-0.859,5.148c0,2.259,0.306,3.855,0.918,4.788c0.612,0.933,1.284,1.493,2.014,1.682
			c0.119,0.017,0.237,0.034,0.355,0.051c0.119,0.017,0.237,0.025,0.355,0.025c0.04,0,0.074,0,0.104,0c0.029,0,0.064,0,0.104,0
			c0.276-0.017,0.548-0.06,0.815-0.128s0.489-0.146,0.667-0.231V59.821z"/>
		<path d="M256.376,42.825h2.429v16.996h-2.429V42.825z"/>
		<path d="M266.181,44.802h-3.051v-1.977h8.591v1.977h-2.903v15.019h-2.637V44.802z"/>
		<path d="M277.941,52.76l-3.851-9.936h2.814l2.458,7.984l0.385-2.67l1.688-5.314h2.844l-3.673,9.936v7.061h-2.666V52.76z"/>
		<path d="M312.512,45.007c0.83,1.455,1.244,3.688,1.244,6.701c0,2.482-0.326,4.51-0.978,6.084
			c-0.651,1.575-1.906,2.362-3.762,2.362c-1.62,0-2.903-0.607-3.851-1.823c-0.948-1.215-1.422-3.372-1.422-6.47
			c0-2.653,0.335-4.822,1.007-6.508c0.671-1.686,1.965-2.529,3.881-2.529C310.389,42.825,311.683,43.552,312.512,45.007z
			 M306.824,46.83c-0.296,1.232-0.444,2.739-0.444,4.519c0,2.567,0.232,4.361,0.696,5.379c0.464,1.019,1.052,1.527,1.763,1.527
			c0.83,0,1.417-0.573,1.763-1.72c0.345-1.146,0.519-2.875,0.519-5.187c0-2.311-0.208-3.949-0.622-4.917
			c-0.415-0.967-1.037-1.45-1.866-1.45C307.723,44.981,307.12,45.598,306.824,46.83z"/>
		<path d="M318.644,42.825h7.347v2.157h-4.503v5.135h3.91v1.925h-3.91v7.779h-2.844V42.825z"/>
		<path d="M345.601,42.825h7.347v2.157h-4.503v5.135h3.91v1.925h-3.91v7.779h-2.844V42.825z"/>
		<path d="M364.796,45.007c0.83,1.455,1.244,3.688,1.244,6.701c0,2.482-0.325,4.51-0.978,6.084
			c-0.651,1.575-1.906,2.362-3.762,2.362c-1.62,0-2.903-0.607-3.851-1.823c-0.948-1.215-1.422-3.372-1.422-6.47
			c0-2.653,0.335-4.822,1.007-6.508c0.671-1.686,1.964-2.529,3.88-2.529C362.673,42.825,363.967,43.552,364.796,45.007z
			 M359.108,46.83c-0.296,1.232-0.444,2.739-0.444,4.519c0,2.567,0.231,4.361,0.696,5.379c0.464,1.019,1.052,1.527,1.763,1.527
			c0.829,0,1.416-0.573,1.763-1.72c0.345-1.146,0.518-2.875,0.518-5.187c0-2.311-0.207-3.949-0.622-4.917
			c-0.414-0.967-1.036-1.45-1.866-1.45C360.007,44.981,359.404,45.598,359.108,46.83z"/>
		<path d="M373.771,42.825V55.79c0,0.702,0.128,1.288,0.385,1.759s0.741,0.706,1.452,0.706c0.632,0,1.135-0.201,1.511-0.603
			c0.375-0.402,0.563-1.083,0.563-2.041V42.825h2.43V55.79c0,1.66-0.386,2.833-1.156,3.517c-0.77,0.685-1.826,1.027-3.169,1.027
			c-1.501,0-2.617-0.342-3.348-1.027c-0.731-0.684-1.097-1.857-1.097-3.517V42.825H373.771z"/>
		<path d="M385.414,42.825h2.637l4.532,12.965l-0.622-6.033v-6.932h2.637v16.996h-2.223l-4.917-13.273l0.593,6.033v7.24h-2.637
			V42.825z"/>
		<path d="M401.528,44.802h-3.051v-1.977h8.591v1.977h-2.903v15.019h-2.637V44.802z"/>
		<path d="M413.792,42.825h2.015l4.325,16.996h-2.844l-0.622-3.338h-3.881l-0.622,3.338h-2.637L413.792,42.825z M414.8,45.315
			l-1.63,9.243h3.11L414.8,45.315z"/>
		<path d="M424.22,42.825h2.43v16.996h-2.43V42.825z"/>
		<path d="M432.396,42.825h2.637l4.532,12.965l-0.622-6.033v-6.932h2.637v16.996h-2.223l-4.917-13.273l0.593,6.033v7.24h-2.637
			V42.825z"/>
		<path d="M447.207,57.305c0.218,0.137,0.444,0.257,0.682,0.359c0.217,0.086,0.435,0.154,0.651,0.206
			c0.218,0.051,0.425,0.077,0.623,0.077c0.592,0,1.11-0.176,1.555-0.526s0.687-0.834,0.726-1.451v-0.411
			c0-0.822-0.217-1.493-0.651-2.016c-0.435-0.522-0.938-1.014-1.511-1.476c-0.1-0.068-0.198-0.141-0.296-0.218
			c-0.1-0.077-0.188-0.15-0.268-0.218c-0.691-0.548-1.323-1.181-1.896-1.9c-0.573-0.719-0.859-1.72-0.859-3.004
			c0-0.222,0.024-0.471,0.074-0.745c0.049-0.273,0.134-0.556,0.252-0.847c0.237-0.616,0.661-1.181,1.273-1.694
			c0.612-0.514,1.501-0.771,2.667-0.771c0.414,0,0.889,0.043,1.422,0.128c0.533,0.086,1.096,0.223,1.688,0.411v2.285
			c-0.455-0.239-0.889-0.415-1.304-0.526c-0.415-0.111-0.78-0.167-1.096-0.167c-0.672,0-1.2,0.184-1.585,0.552
			c-0.386,0.368-0.628,0.766-0.727,1.194c0,0.068-0.005,0.133-0.015,0.192c-0.01,0.061-0.015,0.116-0.015,0.167
			c0,0.616,0.173,1.151,0.519,1.604c0.346,0.454,0.774,0.895,1.289,1.322c0.157,0.154,0.33,0.304,0.518,0.449
			c0.188,0.146,0.371,0.295,0.549,0.45c0.69,0.582,1.327,1.245,1.91,1.989c0.582,0.745,0.903,1.708,0.963,2.889
			c0,1.164-0.444,2.199-1.333,3.106s-2.015,1.361-3.377,1.361c-0.455,0-0.943-0.061-1.467-0.18c-0.523-0.12-1.052-0.317-1.585-0.591
			v-2.464C446.782,57.014,446.99,57.168,447.207,57.305z"/>
	</g>
	<g>
		<path d="M262.612,73.797h1.864v5.438h2.764v-5.438h1.863v14.061h-1.863v-7.009h-2.764v7.009h-1.864V73.797z"/>
		<path d="M272.935,73.797h5.046v1.784h-3.183v4.099h2.743v1.593h-2.743v4.843h3.183v1.742h-5.046V73.797z"/>
		<path d="M283.09,73.797h1.424l3.057,14.061h-2.01l-0.44-2.761h-2.743l-0.439,2.761h-1.864L283.09,73.797z M283.802,75.857
			l-1.151,7.646h2.199L283.802,75.857z"/>
		<path d="M290.46,73.797h2.429c1.242,0,2.111,0.283,2.607,0.85c0.495,0.566,0.743,1.508,0.743,2.825
			c0,0.949-0.167,1.735-0.502,2.358s-0.789,1.013-1.361,1.168l2.575,6.861h-2.01l-2.618-7.158v7.158h-1.864V73.797z M293.863,79.425
			c0.244-0.396,0.367-1.005,0.367-1.827c0-0.722-0.102-1.264-0.304-1.625c-0.203-0.361-0.618-0.542-1.246-0.542h-0.356v4.694
			C293.106,80.055,293.619,79.822,293.863,79.425z"/>
		<path d="M300.846,75.432h-2.157v-1.635h6.072v1.635h-2.052v12.426h-1.864V75.432z"/>
		<path d="M324.654,75.602c0.586,1.204,0.879,3.052,0.879,5.544c0,2.053-0.23,3.731-0.691,5.034
			c-0.46,1.303-1.347,1.955-2.659,1.955c-1.145,0-2.052-0.503-2.722-1.508c-0.67-1.005-1.005-2.79-1.005-5.353
			c0-2.195,0.237-3.99,0.712-5.384c0.475-1.395,1.389-2.092,2.743-2.092C323.153,73.797,324.068,74.399,324.654,75.602z
			 M320.634,77.11c-0.209,1.02-0.314,2.266-0.314,3.738c0,2.124,0.164,3.607,0.492,4.45c0.328,0.843,0.744,1.264,1.246,1.264
			c0.586,0,1.001-0.474,1.246-1.423s0.367-2.379,0.367-4.291s-0.146-3.268-0.44-4.067c-0.293-0.8-0.733-1.2-1.319-1.2
			C321.269,75.581,320.843,76.091,320.634,77.11z"/>
		<path d="M328.988,73.797h5.193v1.784h-3.183v4.248h2.764v1.593h-2.764v6.436h-2.01V73.797z"/>
		<path d="M349.194,75.432h-2.157v-1.635h6.072v1.635h-2.052v12.426h-1.864V75.432z"/>
		<path d="M355.706,73.797h1.864v5.438h2.764v-5.438h1.864v14.061h-1.864v-7.009h-2.764v7.009h-1.864V73.797z"/>
		<path d="M366.029,73.797h5.046v1.784h-3.183v4.099h2.743v1.593h-2.743v4.843h3.183v1.742h-5.046V73.797z"/>
		<path d="M385.418,73.797h1.863l3.204,10.726l-0.439-4.991v-5.735h1.863v14.061h-1.57l-3.476-10.981l0.418,4.992v5.99h-1.863
			V73.797z"/>
		<path d="M397.814,73.797h1.424l3.057,14.061h-2.01l-0.439-2.761h-2.743l-0.44,2.761h-1.863L397.814,73.797z M398.526,75.857
			l-1.152,7.646h2.199L398.526,75.857z"/>
		<path d="M406.189,75.432h-2.156v-1.635h6.072v1.635h-2.052v12.426h-1.864V75.432z"/>
		<path d="M412.848,73.797h1.717v14.061h-1.717V73.797z"/>
		<path d="M424.532,75.602c0.586,1.204,0.879,3.052,0.879,5.544c0,2.053-0.23,3.731-0.69,5.034
			c-0.461,1.303-1.348,1.955-2.659,1.955c-1.146,0-2.053-0.503-2.723-1.508s-1.005-2.79-1.005-5.353c0-2.195,0.237-3.99,0.712-5.384
			c0.475-1.395,1.389-2.092,2.743-2.092C423.031,73.797,423.945,74.399,424.532,75.602z M420.512,77.11
			c-0.21,1.02-0.314,2.266-0.314,3.738c0,2.124,0.164,3.607,0.492,4.45c0.328,0.843,0.743,1.264,1.246,1.264
			c0.586,0,1.001-0.474,1.246-1.423c0.244-0.949,0.366-2.379,0.366-4.291s-0.146-3.268-0.439-4.067s-0.733-1.2-1.319-1.2
			C421.146,75.581,420.721,76.091,420.512,77.11z"/>
		<path d="M428.866,73.797h1.863l3.204,10.726l-0.439-4.991v-5.735h1.863v14.061h-1.57l-3.476-10.981l0.418,4.992v5.99h-1.863
			V73.797z"/>
	</g>
	<g>
		<path d="M254.899,396.822h3.871v6.641l5.438-6.641h4.176l-5.959,6.641l6.264,6.6h-4.481l-5.438-6.46v6.46h-3.871V396.822z"/>
		<path d="M280.607,396.822h2.958l6.351,13.24h-4.176l-0.914-2.6h-5.698l-0.914,2.6h-3.872L280.607,396.822z M282.086,398.763
			l-2.393,7.2h4.567L282.086,398.763z"/>
		<path d="M297.354,396.822h3.871l6.656,10.101l-0.914-4.7v-5.4h3.872v13.24h-3.263l-7.221-10.34l0.87,4.7v5.64h-3.871V396.822z"/>
		<path d="M320.843,408.102c0.318,0.106,0.652,0.2,1,0.28c0.318,0.066,0.637,0.12,0.957,0.16c0.318,0.04,0.623,0.06,0.913,0.06
			c0.87,0,1.631-0.137,2.284-0.41c0.652-0.273,1.007-0.649,1.065-1.13v-0.32c0-0.64-0.319-1.163-0.957-1.569
			c-0.638-0.407-1.377-0.79-2.218-1.15c-0.146-0.053-0.291-0.11-0.435-0.17c-0.146-0.06-0.276-0.116-0.392-0.17
			c-1.016-0.427-1.943-0.92-2.784-1.48c-0.841-0.56-1.261-1.34-1.261-2.34c0-0.173,0.036-0.366,0.109-0.58
			c0.072-0.213,0.195-0.433,0.37-0.66c0.348-0.479,0.971-0.92,1.871-1.319c0.898-0.4,2.204-0.601,3.915-0.601
			c0.609,0,1.305,0.034,2.088,0.101c0.783,0.066,1.609,0.173,2.479,0.319v1.78c-0.667-0.187-1.305-0.323-1.914-0.41
			c-0.609-0.086-1.146-0.13-1.609-0.13c-0.986,0-1.762,0.144-2.328,0.431c-0.565,0.286-0.921,0.597-1.065,0.93
			c0,0.054-0.007,0.104-0.022,0.149c-0.015,0.047-0.021,0.091-0.021,0.131c0,0.479,0.253,0.896,0.761,1.25
			c0.507,0.354,1.138,0.696,1.892,1.029c0.232,0.12,0.485,0.237,0.761,0.351c0.275,0.113,0.544,0.229,0.805,0.35
			c1.015,0.453,1.95,0.97,2.806,1.55s1.327,1.33,1.414,2.25c0,0.907-0.652,1.714-1.958,2.42c-1.305,0.707-2.958,1.061-4.959,1.061
			c-0.667,0-1.385-0.047-2.153-0.141c-0.769-0.093-1.544-0.246-2.327-0.46v-1.92C320.219,407.876,320.523,407.996,320.843,408.102z"
			/>
		<path d="M343.376,396.822h2.958l6.351,13.24h-4.176l-0.914-2.6h-5.698l-0.914,2.6h-3.872L343.376,396.822z M344.855,398.763
			l-2.393,7.2h4.567L344.855,398.763z"/>
		<path d="M360.601,408.102c0.319,0.106,0.652,0.2,1.001,0.28c0.318,0.066,0.638,0.12,0.957,0.16c0.318,0.04,0.623,0.06,0.913,0.06
			c0.87,0,1.632-0.137,2.284-0.41s1.007-0.649,1.065-1.13v-0.32c0-0.64-0.319-1.163-0.957-1.569c-0.638-0.407-1.378-0.79-2.219-1.15
			c-0.146-0.053-0.29-0.11-0.435-0.17c-0.146-0.06-0.276-0.116-0.392-0.17c-1.016-0.427-1.943-0.92-2.784-1.48
			c-0.841-0.56-1.262-1.34-1.262-2.34c0-0.173,0.036-0.366,0.109-0.58c0.072-0.213,0.195-0.433,0.369-0.66
			c0.349-0.479,0.972-0.92,1.871-1.319c0.898-0.4,2.203-0.601,3.915-0.601c0.608,0,1.305,0.034,2.088,0.101s1.609,0.173,2.479,0.319
			v1.78c-0.668-0.187-1.305-0.323-1.914-0.41c-0.609-0.086-1.146-0.13-1.609-0.13c-0.986,0-1.762,0.144-2.327,0.431
			c-0.565,0.286-0.921,0.597-1.066,0.93c0,0.054-0.007,0.104-0.021,0.149c-0.015,0.047-0.021,0.091-0.021,0.131
			c0,0.479,0.253,0.896,0.761,1.25s1.138,0.696,1.893,1.029c0.231,0.12,0.485,0.237,0.762,0.351c0.274,0.113,0.543,0.229,0.805,0.35
			c1.015,0.453,1.949,0.97,2.806,1.55c0.854,0.58,1.326,1.33,1.413,2.25c0,0.907-0.652,1.714-1.957,2.42
			c-1.305,0.707-2.958,1.061-4.959,1.061c-0.668,0-1.386-0.047-2.153-0.141c-0.769-0.093-1.544-0.246-2.327-0.46v-1.92
			C359.977,407.876,360.281,407.996,360.601,408.102z"/>
		<path d="M398.252,410.062c-0.284,0.027-0.568,0.06-0.853,0.1s-0.568,0.067-0.852,0.08c-0.313,0.027-0.611,0.047-0.895,0.061
			c-0.284,0.013-0.568,0.02-0.852,0.02c-2.103,0-3.962-0.46-5.581-1.38s-2.428-2.653-2.428-5.2c0-2.692,0.709-4.526,2.13-5.5
			c1.419-0.973,3.294-1.46,5.623-1.46c0.368,0,0.76,0.011,1.171,0.03c0.412,0.021,0.831,0.05,1.257,0.09
			c0.142,0.014,0.299,0.027,0.469,0.04c0.171,0.014,0.341,0.027,0.512,0.04v1.64c-0.114-0.013-0.221-0.029-0.32-0.05
			c-0.1-0.02-0.206-0.036-0.319-0.05c-0.369-0.053-0.731-0.093-1.086-0.12c-0.355-0.026-0.675-0.04-0.959-0.04
			c-1.477,0-2.627,0.41-3.45,1.23c-0.824,0.819-1.235,2.156-1.235,4.01c0,1.76,0.439,3.004,1.32,3.73
			c0.88,0.727,1.846,1.163,2.897,1.31c0.17,0.014,0.341,0.026,0.511,0.04s0.341,0.02,0.511,0.02c0.057,0,0.107,0,0.149,0
			c0.043,0,0.092,0,0.149,0c0.397-0.013,0.788-0.046,1.171-0.1c0.384-0.053,0.703-0.113,0.959-0.18V410.062z"/>
		<path d="M406.132,396.822h3.493v13.24h-3.493V396.822z"/>
		<path d="M421.937,398.362h-4.388v-1.54h12.354v1.54h-4.175v11.7h-3.791V398.362z"/>
		<path d="M440.552,404.562l-5.538-7.74h4.047l3.536,6.221l0.554-2.08l2.428-4.141h4.09l-5.282,7.74v5.5h-3.834V404.562z"/>
	</g>
	<g>
		<path d="M254.702,425.953h2.866l3.658,7.431l3.13-7.431h3.092l2.376,10.164h-3.432l-0.754-6.986l-3.093,6.986h-2.414l-3.356-6.986
			l-0.754,6.986h-3.356L254.702,425.953z"/>
		<path d="M286.229,425.953h3.093v10.164h-3.093V425.953z"/>
		<path d="M307.688,434.612c0.276,0.082,0.566,0.153,0.868,0.215c0.276,0.052,0.553,0.092,0.83,0.123
			c0.276,0.03,0.541,0.046,0.792,0.046c0.754,0,1.414-0.104,1.98-0.314c0.565-0.21,0.873-0.499,0.924-0.868v-0.245
			c0-0.491-0.277-0.893-0.83-1.205c-0.553-0.313-1.194-0.606-1.923-0.883c-0.126-0.041-0.251-0.085-0.377-0.131
			s-0.239-0.089-0.339-0.13c-0.88-0.328-1.685-0.707-2.414-1.137c-0.729-0.43-1.094-1.028-1.094-1.796
			c0-0.133,0.031-0.281,0.094-0.445c0.063-0.164,0.17-0.333,0.321-0.507c0.302-0.368,0.842-0.706,1.622-1.013
			c0.779-0.308,1.911-0.461,3.394-0.461c0.528,0,1.131,0.025,1.811,0.076c0.679,0.052,1.395,0.134,2.149,0.246v1.366
			c-0.579-0.143-1.131-0.248-1.659-0.314c-0.528-0.066-0.994-0.1-1.396-0.1c-0.855,0-1.527,0.109-2.018,0.33
			c-0.49,0.22-0.798,0.458-0.924,0.714c0,0.041-0.007,0.079-0.019,0.115c-0.013,0.036-0.019,0.068-0.019,0.1
			c0,0.368,0.22,0.688,0.66,0.959c0.439,0.271,0.986,0.535,1.641,0.791c0.201,0.092,0.42,0.182,0.66,0.269
			c0.239,0.087,0.472,0.177,0.698,0.269c0.88,0.349,1.691,0.745,2.433,1.19c0.741,0.445,1.15,1.021,1.226,1.727
			c0,0.696-0.565,1.315-1.697,1.858c-1.132,0.542-2.564,0.813-4.299,0.813c-0.579,0-1.201-0.036-1.867-0.107
			s-1.338-0.189-2.018-0.354v-1.474C307.146,434.438,307.411,434.53,307.688,434.612z"/>
		<path d="M332.879,434.612c0.276,0.082,0.566,0.153,0.868,0.215c0.276,0.052,0.553,0.092,0.83,0.123
			c0.276,0.03,0.541,0.046,0.792,0.046c0.754,0,1.414-0.104,1.98-0.314c0.565-0.21,0.873-0.499,0.924-0.868v-0.245
			c0-0.491-0.277-0.893-0.83-1.205c-0.553-0.313-1.194-0.606-1.923-0.883c-0.126-0.041-0.251-0.085-0.377-0.131
			s-0.239-0.089-0.339-0.13c-0.88-0.328-1.685-0.707-2.414-1.137c-0.729-0.43-1.094-1.028-1.094-1.796
			c0-0.133,0.031-0.281,0.094-0.445c0.063-0.164,0.17-0.333,0.321-0.507c0.302-0.368,0.842-0.706,1.622-1.013
			c0.779-0.308,1.911-0.461,3.394-0.461c0.528,0,1.131,0.025,1.811,0.076c0.679,0.052,1.395,0.134,2.149,0.246v1.366
			c-0.579-0.143-1.131-0.248-1.659-0.314c-0.528-0.066-0.994-0.1-1.396-0.1c-0.855,0-1.527,0.109-2.018,0.33
			c-0.49,0.22-0.798,0.458-0.924,0.714c0,0.041-0.007,0.079-0.019,0.115c-0.013,0.036-0.019,0.068-0.019,0.1
			c0,0.368,0.22,0.688,0.66,0.959c0.439,0.271,0.986,0.535,1.641,0.791c0.201,0.092,0.42,0.182,0.66,0.269
			c0.239,0.087,0.472,0.177,0.698,0.269c0.88,0.349,1.691,0.745,2.433,1.19c0.741,0.445,1.15,1.021,1.226,1.727
			c0,0.696-0.565,1.315-1.697,1.858c-1.132,0.542-2.564,0.813-4.299,0.813c-0.579,0-1.201-0.036-1.867-0.107
			s-1.338-0.189-2.018-0.354v-1.474C332.338,434.438,332.603,434.53,332.879,434.612z"/>
		<path d="M368.292,427.258c1.056,0.87,1.584,2.206,1.584,4.008c0,1.483-0.415,2.696-1.245,3.639
			c-0.829,0.941-2.427,1.412-4.789,1.412c-2.063,0-3.696-0.363-4.903-1.09c-1.207-0.727-1.81-2.017-1.81-3.869
			c0-1.586,0.427-2.884,1.282-3.892s2.501-1.513,4.941-1.513C365.589,425.953,367.235,426.389,368.292,427.258z M361.051,428.349
			c-0.377,0.736-0.565,1.638-0.565,2.702c0,1.535,0.295,2.607,0.886,3.216c0.591,0.609,1.339,0.914,2.244,0.914
			c1.056,0,1.804-0.343,2.244-1.029c0.439-0.686,0.66-1.72,0.66-3.101c0-1.382-0.265-2.362-0.792-2.94
			c-0.528-0.578-1.32-0.867-2.376-0.867C362.194,427.243,361.428,427.611,361.051,428.349z"/>
		<path d="M390.354,425.953v7.753c0,0.42,0.163,0.771,0.49,1.052c0.326,0.282,0.942,0.423,1.848,0.423
			c0.805,0,1.445-0.12,1.924-0.361c0.477-0.24,0.716-0.647,0.716-1.221v-7.646h3.093v7.753c0,0.993-0.49,1.694-1.471,2.104
			s-2.326,0.614-4.035,0.614c-1.911,0-3.332-0.205-4.262-0.614c-0.931-0.409-1.396-1.11-1.396-2.104v-7.753H390.354z"/>
		<path d="M416.073,425.953h4.374c2.238,0,3.803,0.205,4.695,0.614s1.339,1.09,1.339,2.042c0,0.686-0.302,1.254-0.905,1.704
			c-0.603,0.45-1.42,0.731-2.451,0.845l4.639,4.959h-3.62l-4.714-5.174v5.174h-3.356V425.953z M422.201,430.021
			c0.439-0.286,0.66-0.727,0.66-1.32c0-0.521-0.183-0.913-0.547-1.174c-0.365-0.262-1.112-0.392-2.244-0.392h-0.641v3.393
			C420.837,430.477,421.761,430.309,422.201,430.021z"/>
		<path d="M443.604,425.953h3.092v10.164h-3.092V425.953z"/>
	</g>
</g>
</svg>
