<svg width="1599.9999" height="1000" viewBox="0 0 724 433" version="1.0" xmlns="http://www.w3.org/2000/svg">
  <path style="fill:#007f00;fill-opacity:1;stroke:none;stroke-width:.09375" d="M-.00003572-9.75004H724.00004v452.50008H-.00003572V-9.75004z"/>
  <path style="fill:#fff;stroke-width:.335195" d="M327.56655 350.88807c-.17389-4.47139-.90629-10.15453-2.00596-15.56579-2.02304-9.95487-1.78173-13.53998 1.11567-16.57555 1.4197-1.48739 4.26725-2.80278 6.06744-2.80278.45462 0 .91624-.14506 1.0258-.32235.21439-.34688-2.15326-1.68883-2.97969-1.68883-1.01076 0-2.20619.7995-3.07934 2.05946-1.20096 1.73298-1.61603 1.65722-1.35498-.24736.31711-2.31363 2.08043-5.75518 3.34324-6.52519 2.28237-1.39167 5.29909-.28893 8.43625 3.08381 2.88406 3.10064 3.01703 3.42914 2.43936 6.02642l-.47579 2.13917-3.5406-.1189c-4.74224-.15925-6.9299.4546-8.88992 2.4945-1.22972 1.27986-1.39195 1.6185-1.22934 2.56618.10302.60046.55002 2.97722.99333 5.28169 1.79003 9.30522 2.15941 15.60451 1.11869 19.07812-.35528 1.18582-.95501 1.86676-.98416 1.1174zm58.61135-8.47678c-17.96409-5.3662-28.28142-10.88437-35.598-19.03934-6.22702-6.94058-9.86505-14.52898-12.95861-27.02975-1.02527-4.14301-1.28675-4.85695-1.47579-4.02953-1.31284 5.74612-4.92009 10.90505-13.48965 19.29231-11.40186 11.15931-23.9691 20.24827-33.06902 23.9164-3.97595 1.60269-7.94567 2.31608-11.953 2.14807-3.58928-.15048-5.93325-.99708-8.15041-2.94378l-1.2467-1.09461-1.58717.67617c-4.35769 1.85646-19.01086 3.55172-30.91676 3.57682-9.2981.0196-9.38813-.19409-1.27828-3.03403 7.13279-2.49779 19.66021-7.4975 25.37073-10.1255l4.14833-1.90906-.0561-3.85476c-.097-6.66843 1.11909-13.31201 3.98669-21.77979.9038-2.66883 1.60753-4.88817 1.56386-4.93184-.0437-.0437-.82657.15211-1.73975.4351-2.65171.82171-6.68461.49643-9.08872-.73308-3.20215-1.63764-5.28566-5.20032-5.71214-9.76738-.10932-1.17068-.30859-2.08566-.44281-2.03329-.13422.0524-2.26271 1.21944-4.72999 2.5935l-4.48595 2.49828.12128 3.54324c.20518 5.99449-1.42297 12.40294-4.06301 15.99212-1.78606 2.4282-6.00199 6.44895-10.13049 9.66147-8.02215 6.2423-21.83939 15.02288-29.89053 18.9948-4.64871 2.29339-6.94954 2.80822-17.03684 3.81209-6.47675.64456-16.67411.83633-16.91665.31814-.0863-.18436 2.10086-1.1266 4.86033-2.09386 12.93619-4.53443 24.1462-9.21341 30.7837-12.84889 16.94174-9.27928 32.94283-20.63019 38.28268-27.15708l1.8602-2.27372-1.22396-2.78529c-.67317-1.53191-1.26277-2.82461-1.31022-2.87267-.0475-.0481-.71716.13522-1.48827.40728-4.62333 1.63121-11.27288 2.07379-13.87354.92339-2.47628-1.09537-3.84281-2.32906-4.84867-4.37731-.82974-1.68959-.92641-2.23744-.89616-5.07826.0269-2.52509.20891-3.6522.87916-5.4441 2.20084-5.8839 5.87604-9.44767 9.69572-9.40173 3.65701.044 8.95319 4.72284 11.87213 10.48829.51335 1.01396.96673 1.89096 1.00751 1.94889.11782.16736 4.25652-1.9861 9.52832-4.95782 2.67318-1.50688 5.23743-2.76615 5.69832-2.79838.7367-.0516.82808.0629.756.94697-.0451.55307-.17645 2.15478-.29191 3.55934-.26551 3.22986.18318 4.64748 2.06738 6.53167 2.75605 2.75606 7.46341 3.25584 11.57944 1.22938 3.03095-1.49222 4.55999-2.92142 8.35084-7.80555 3.36608-4.33685 5.39395-6.1284 6.11765-5.4047.27508.27508.15822.88433-.44216 2.30507-1.72752 4.08807-.72981 7.22454 2.85622 8.97902 1.6827.82326 2.13713.89852 4.634.76748 2.90744-.1526 5.60158-1.2119 5.60158-2.20246 0-.25563-.49023-1.35065-1.08939-2.43337l-1.08938-1.96858.77464-2.95183c1.33779-5.09774 1.77808-6.47139 2.07422-6.47139.38404 0 1.49611 3.0359 2.02595 5.53073 1.64864 7.76289-1.75554 17.64391-6.88599 19.98736-4.40961 2.01419-10.47939-1.30939-12.46239-6.82394-.31629-.87955-.69673-1.59918-.84543-1.59918-.14871 0-1.18506 1.24442-2.30302 2.76536-1.11795 1.52095-2.90194 3.67039-3.96442 4.77654-1.92486 2.00396-1.93633 2.02815-3.20184 6.75046-.69854 2.60661-1.2142 4.89072-1.14592 5.0758.0683.18508 8.93983-2.81069 19.71455-6.65726 10.77473-3.84657 19.6547-6.92948 19.73327-6.8509.0786.0786.0373.98762-.0917 2.0201-.20222 1.61852-.35795 1.92674-1.12992 2.23639-.49246.19752-9.4869 3.43358-19.98765 7.19125-10.50075 3.75766-19.23606 6.97591-19.41181 7.15166-.17575.17574-.39084 2.29389-.47798 4.70699-.12604 3.4907-.0396 4.82658.42316 6.53597.81179 2.999 1.08041 3.14124 3.43545 1.81915 9.78467-5.49296 22.44785-13.65049 29.96652-19.3042 4.36291-3.28072 12.32311-10.52025 13.03964-11.85911.20389-.38094-.66587-2.51724-3.00692-7.38563-3.58173-7.44848-5.28087-11.71997-6.5531-16.47386-.66428-2.4822-1.05349-3.30703-2.03463-4.31181l-1.21323-1.24246 1.2452-5.98618c.68486-3.2924 1.35528-6.19041 1.48981-6.44001.27482-.50985.12819-.68153 7.12288 8.34031 5.05825 6.52421 6.12129 8.14004 5.83909 8.87544-.16483.42954-.45144.40208-2.05139-.19654-1.02289-.38271-1.99619-.64638-2.16289-.58592-.16671.0604.45169 1.76913 1.3742 3.79707 3.7408 8.22323 4.64919 11.54134 4.6563 17.00825.004 3.00375-.17367 4.45499-.87023 7.11168-1.53282 5.8462-3.04282 8.83813-6.49481 12.86897-3.42551 3.99991-12.91025 11.59536-22.22767 17.80009-2.3404 1.55854-4.20337 2.88562-4.13993 2.94906.27395.27395 5.25219-1.72724 8.20695-3.29907 14.33791-7.62732 32.34616-23.1694 40.18536-34.6821l1.38281-2.03081-1.45835-5.67868c-4.16415-16.21475-7.43062-25.49268-15.19672-43.16413l-3.65792-8.32344 1.73818-6.07237c.95599-3.33979 1.88146-6.12012 2.05659-6.1785.45722-.15241 3.1287 4.41296 5.43548 9.28882 6.01348 12.7108 11.1749 28.98294 15.31032 48.26815 2.38343 11.11491 2.95834 13.5625 4.17343 17.76781 4.79431 16.59259 11.00547 25.40121 21.9902 31.18632l1.98385 1.0448.22521-3.33555c.37368-5.53467 3.0706-12.37682 6.11469-15.51311 1.91111-1.96898 4.76169-3.82658 8.7046-5.67241 3.35252-1.56943 11.9996-4.92556 16.37643-6.35606 1.24241-.40605 2.32163-.83967 2.39827-.96357.0766-.1239-7.42592-.18409-16.67233-.13375-16.40362.0893-38.92689-.3073-39.31183-.69224-.30367-.30368 1.40744-8.5761 2.21948-10.73012.93363-2.47658 3.38067-6.13862 6.04454-9.04576 7.0667-7.71206 24.28942-20.12917 35.96153-25.92728 1.78567-.88703 3.24667-1.74818 3.24667-1.91367 0-.1655-.67922-1.41966-1.50938-2.78704-3.48658-5.74288-3.95958-10.56423-1.54304-15.72827 2.05557-4.39265 5.06104-6.49826 9.28371-6.50408 4.64748-.007 9.82671 1.89593 15.77535 5.79428 2.72276 1.78433 8.6414 7.42907 9.47238 9.03403.43228.83493.34801 1.38822-.9696 6.36543-1.96843 7.43573-1.60725 6.79325-4.0859 7.26809-3.84638.73685-9.02385 2.07473-13.21807 3.4156l-4.13111 1.32069-.0958 3.25963c-.12085 4.11041-.60657 4.28781-2.27105.82947-.64329-1.33659-1.37323-2.43016-1.62208-2.43016-.83348 0-8.95343 3.87391-13.32749 6.35835-8.42769 4.78689-17.86642 11.30105-24.73083 17.06805l-2.63774 2.21605 3.81093.20729c13.42176.73009 62.21007.005 83.83883-1.24538 2.9159-.16862 3.60338-.12145 3.60355.24726.00014.2506-.94015 3.04559-2.08947 6.21111l-2.0897 5.75548-6.20662 1.74426c-7.86524 2.21041-25.17192 7.9053-25.6887 8.45307-.56465.59851-1.46759 3.98447-1.46759 5.50335 0 2.79392 2.26337 3.79382 3.40641 1.50485.80181-1.60566 1.06447-1.73637.78869-.39248-.45864 2.23509-1.41653 3.98523-2.30296 4.20771-3.04267.76366-4.24987-3.23049-2.42705-8.03016.48335-1.27273.83052-2.36238.77147-2.42142-.20858-.20858-24.69245 9.21165-27.94413 10.75157-4.22337 2.00008-7.65388 4.14872-9.25254 5.79516l-1.26181 1.29951 1.04363 1.57557c2.02496 3.05714 5.62744 5.53914 12.20623 8.40971 2.02793.88485 4.76949 2.1087 6.09236 2.71965l2.40521 1.11081-.15945 5.8105c-.19604 7.14432-.30999 7.99792-1.06281 7.962-.31428-.015-3.53868-.91365-7.16534-1.99701zm-154.55126-62.88565c.98269-.11804 1.75978-.38196 1.75978-.59768 0-.55162-2.6511-3.03501-3.92191-3.67381-2.22131-1.1166-5.42627-.49605-6.58698 1.27541-.77353 1.18057-.70974 1.38634.62639 2.02036 2.1727 1.03103 4.91742 1.36073 8.12272.97572zm173.51089-42.31243 6.33218-2.13858-1.80704-1.16612c-2.70883-1.74807-8.94068-4.65785-10.96993-5.12208-1.9038-.43554-4.58163-.29346-5.14824.27315-.23284.23283-.20793.75387.0779 1.63007.69081 2.11737 4.39269 8.87187 4.80271 8.76305.20912-.0555 3.2297-1.06327 6.71239-2.23949zM204.89481 342.12414c0-.16514.7919-.78972 1.75977-1.38794 5.1045-3.155 8.44901-5.5169 10.41111-7.35236 2.20062-2.05857 3.05186-3.06329 9.09603-10.73598 4.78686-6.07664 9.89233-11.0358 12.78035-12.41413 2.08462-.9949 2.68078-1.1153 6.49826-1.31235 2.31168-.11932 4.52176-.39235 4.91129-.60673 1.02236-.56267 2.51551-2.36026 3.48114-4.19093.97776-1.85365 1.42684-2.02858 1.279-.4982-.0971 1.00502-.0228 1.09737.95948 1.19258 1.4601.14152 3.47866-.96174 4.90806-2.68255.65411-.78747 1.28682-1.33423 1.40603-1.21502.30834.30834-.69546 4.03104-1.54271 5.72126-1.46239 2.91744-3.74008 4.52802-6.85872 4.84989-1.6389.16915-1.89259.31933-3.30701 1.95764-1.7879 2.07093-3.60411 2.88676-7.73927 3.47642-1.47384.21016-3.43389.54604-4.35567.7464-4.04667.87957-8.05529 4.10285-11.93656 9.59802-4.99502 7.07204-7.03539 8.97523-12.6139 11.76586-5.23862 2.62059-9.13668 3.93811-9.13668 3.08812zm247.27299-.85415c-2.70828-.96602-5.27528-3.29641-7.91836-7.18851-4.29465-6.32418-6.04283-13.7921-6.05051-25.84703-.006-8.96829 1.16729-16.42457 2.58389-16.42457.46639 0 .49217.45259.22444 3.93855-.52156 6.79123-.36107 17.27923.31338 20.47603 1.49802 7.10081 4.69918 12.47701 8.62026 14.47739 2.96265 1.51144 6.93431.47937 10.13935-2.63479 3.00821-2.92295 4.94876-6.41956 12.03758-21.69006 4.65402-10.02562 8.44457-15.76053 13.18018-19.94104 4.26587-3.76584 7.8959-4.81758 11.2693-3.26509 2.14703.98811 4.53276 3.36436 6.04643 6.02245 8.07798 14.18552 11.95525 17.36907 21.21951 17.42296 4.07015.0236 8.13406-.62068 11.81869-1.87392 2.85979-.97267 6.5577-2.70205 7.05241-3.29815.38993-.46985.0548-6.60629-1.44137-26.3941-.467-6.17598-1.51606-20.54009-2.33128-31.92025l-1.48221-20.6912-5.53465-6.51211c-3.04404-3.58165-7.41036-8.85064-9.703-11.70884l-4.16835-5.19674-3.67257 3.90843c-2.01989 2.14964-6.11869 6.4626-9.10843 9.58436l-5.43594 5.67593.19294 2.03357c.1061 1.11846.72805 9.1015 1.38208 17.7401.88509 11.69047 1.16229 17.19728 1.08415 21.53673-.0578 3.20662-.0164 5.83002.0915 5.82978.24902-.00067 6.38283-4.20794 9.69181-6.64796 2.79777-2.06306 5.93111-4.94345 7.42263-6.82344l.98085-1.23632-2.03262-.57032c-1.43347-.40222-2.28852-.87445-2.90079-1.60208-.79015-.93904-.85387-1.23129-.70923-3.25282.10096-1.41083.48409-2.93131 1.05023-4.16795.49022-1.07078.85143-1.97889.80269-2.01803-.0487-.0391-.4208-.24387-.82679-.45497-.71122-.36981-.7201-.43514-.24258-1.78854.27258-.77259.74129-1.67617 1.04152-2.00795.76153-.84148 2.7963-.76374 5.5625.21251 6.92105 2.44257 10.69931 8.07039 9.30898 13.86591-.59544 2.48211-1.23901 2.91612-4.32432 2.91612-1.4098 0-3.09117-.12071-3.73643-.26824-1.16872-.26721-1.17694-.26087-2.1673 1.67598-1.82072 3.5608-9.09878 9.93594-16.71335 14.63986l-3.18798 1.9694-.73377 2.89094c-1.16585 4.59316-1.78347 6.24288-2.33725 6.24288-.33557 0-.53001-.39018-.58461-1.17318-.045-.64525-.16868-2.24182-.2748-3.54793l-.193-2.37475-2.74194 1.1092c-2.93121 1.18576-6.13826 2.0317-6.46474 1.70522-.40281-.40279.29275-.90124 4.3105-3.08902 2.25775-1.22942 4.27619-2.41201 4.48539-2.62795.28412-.29326-.0308-5.9026-1.24461-22.15995-.89373-11.97201-1.66827-21.94817-1.72117-22.16922-.10347-.43246-14.77822 14.72214-14.94475 15.43342-.055.23489.74394 1.54026 1.77537 2.90084 2.20541 2.90918 4.64463 7.6826 5.37489 10.51847 1.57823 6.12866.69265 13.14068-2.46919 19.55097-1.9506 3.95463-4.99789 6.65898-10.00166 8.87603-4.64799 2.05939-10.92372 2.87296-13.58483 1.76108-1.67414-.69951-3.17846-2.39287-4.01983-4.52501-.96266-2.4395-1.04786-8.85228-.1725-12.97904 1.58183-7.45722 5.81793-16.40453 10.60187-22.39286 1.05827-1.32468 1.24964-1.76035.93804-2.13576-.64226-.77388-5.57319-4.8715-14.99021-12.45689-18.40132-14.82223-25.71512-22.00247-34.48467-33.85493-2.05239-2.77389-2.3607-3.07802-5.15219-5.08212l-1.92737-1.38373V182.32c0-4.97087.098-6.48594.41899-6.47999.57816.0107 4.35641 2.88146 12.19832 9.26837 9.05958 7.37867 11.1326 9.30939 10.59397 9.86674-.41494.42931-1.19802.35227-5.94871-.58523-.8797-.17361-.54399.27066 2.68156 3.54859 4.42256 4.49439 10.8015 9.9691 22.2905 19.13077 9.79387 7.8099 13.2558 10.68932 17.85224 14.84831l3.27127 2.95991 4.26874-4.46675c2.34781-2.45671 6.65269-6.9185 9.56645-9.91509l5.29773-5.44834-.193-1.92596c-.10616-1.05928-.57091-6.75277-1.03278-12.65221-1.54052-19.67646-1.69404-20.92235-3.01089-24.43758l-1.17523-3.1373 2.43194-5.90732c1.3376-3.24903 2.58419-5.8566 2.77019-5.79459.99125.33041 9.1987 24.33085 9.79214 28.63433.3545 2.57074-1.02644 1.72579-4.25783-2.60527-.91783-1.23019-1.33371-1.58727-1.33042-1.14242.004.35593.37813 5.47395.83454 11.37339.45637 5.89944.83808 10.95251.84824 11.22905.0107.29223.60878-.14919 1.42804-1.05408.77527-.85627 4.10262-4.36007 7.3941-7.78622l5.98455-6.22936-2.63259-3.94477c-1.44791-2.16963-3.58347-5.83063-4.74563-8.13556-1.16219-2.30493-2.70828-4.89755-3.43576-5.76137l-1.32271-1.57059v-6.41824c0-3.55009.13163-6.36831.29457-6.3065.16204.0615 4.04611 3.69327 8.63128 8.07071 8.09843 7.73149 11.35347 11.18809 11.35347 12.05645 0 .75306-1.19011.68-3.75472-.23045-1.38191-.4906-2.57581-.82876-2.65307-.75149-.18895.18897 4.22718 5.93857 4.56131 5.93857.14463 0 2.52935-2.52654 5.2993-5.61453 5.58104-6.22177 6.48117-7.30066 6.26846-7.51334-.24259-.24259 4.66769-11.78155 5.02732-11.81397.18436-.0166.63687.76 1.00559 1.72583.36871.96583.768 1.75773.88733 1.75977.29782.005 3.86819-5.55872 5.85835-9.12931 2.34599-4.20891 2.95625-3.95516 1.96015.81503-.90627 4.34016-2.18829 8.07261-3.90661 11.37371l-1.67782 3.2233 2.51756 7.67056c2.71377 8.26834 3.49676 11.38847 3.11031 12.39422-.21848.56864-.401.4721-1.64832-.87192-.77146-.83125-1.95929-2.1888-2.63967-3.01676l-1.23704-1.50538.14913 1.17318c.082.64525.52757 6.45251.9901 12.90502.46257 6.45251.92246 12.36466 1.02195 13.13811.16049 1.2476 1.07171 2.45778 8.07677 10.72625 4.34276 5.126 8.96299 10.63727 10.26721 12.24727 1.30426 1.61001 2.42029 2.8783 2.48014 2.81844.13786-.13784-2.68689-38.28067-3.72701-50.32671-.74122-8.58413-.84171-9.20895-1.95097-12.1309l-1.16947-3.08061 2.39424-5.77688c1.31682-3.17728 2.54893-5.82844 2.73798-5.89146.38245-.12749 3.9699 9.24185 6.6985 17.49437 2.84586 8.60733 3.659 12.22476 2.85927 12.71906-.32453.20056-2.44096-2.05779-4.14457-4.42241-.56424-.78321-1.07122-1.37871-1.12663-1.32333-.0556.0554.8881 13.89452 2.09658 30.75363l2.19733 30.65292.98003 1.34078c.53905.73743 2.22296 3.03979 3.74197 5.11635 7.18785 9.82604 11.75339 18.8353 13.84249 27.31583 1.03411 4.19758 1.88939 15.40223 1.22641 16.06524-.21808.21803-.44416.33107-.50253.25118-.0585-.0799-.75477-2.14087-1.54746-4.57995-1.55856-4.79564-5.14727-12.43231-8.23336-17.5206-2.19333-3.61637-7.9312-11.80201-8.13203-11.60119-.0733.073.26646 5.08876.75418 11.14624 1.38241 17.16889 1.18596 22.4773-1.16434 31.46052-1.21529 4.64498-1.5936 5.61963-2.11488 5.44769-.28852-.0952-.50416-1.62605-.70024-4.97138-.15586-2.65862-1.06774-15.47719-2.02643-28.48573l-1.74309-23.65189-3.32336-4.00173c-4.67674-5.63129-16.89719-19.86649-17.23279-20.0739-.15362-.095-.21821.46568-.14353 1.24585.0747.78016.90734 11.29837 1.85038 23.37379 1.51035 19.34039 1.71878 23.17293 1.74972 32.17876.0298 8.69982-.0556 10.64808-.57342 13.07262-.75449 3.53233-2.27886 7.98185-3.37565 9.85344-3.047 5.19927-12.45 9.01645-22.16105 8.99632-9.403-.0195-13.69487-3.10637-20.61546-14.82741-2.02025-3.42164-4.19832-6.34455-5.69607-7.64409-.97505-.84599-3.19823-1.72666-4.35885-1.72666-3.22016 0-8.30933 4.00889-12.04112 9.48517-1.70122 2.49652-4.36274 8.04377-7.72428 16.09935-3.5344 8.46984-4.55936 10.59532-6.5952 13.67666-3.67271 5.55883-8.62619 8.04238-12.95849 6.49706zm19.37497-71.38731c2.89028-.91957 7.05385-3.13517 9.73022-5.17783 1.49007-1.13725 1.65646-1.3932 1.57226-2.4186-.20755-2.52778-3.40779-7.9183-7.61587-12.82821-1.87927-2.1927-2.32843-2.55579-2.69524-2.17877-.24211.24882-1.89546 2.18704-3.67411 4.30716-5.27109 6.28301-7.9556 10.76328-8.60735 14.36511-.45868 2.535-.0368 3.56451 1.81834 4.4376 1.88842.88876 5.73257.6832 9.47175-.50646zm58.58254-22.26526c.54207-.21431.51027-.36638-.36577-1.74774-1.34574-2.12201-3.0117-3.95288-4.1169-4.52439l-.94026-.48623.0663 1.42514c.0365.78382-.054 2.13363-.20105 2.99958l-.26739 1.57444 1.27489.33262c1.12572.29371 2.61388.55452 3.62121.63465.18436.0147.60238-.079.92893-.20807zm-7.46524-2.37759c0-2.36235-1.00914-4.37966-2.19087-4.37966-.65712 0-3.0895 2.22799-3.35883 3.07657-.11839.37294-.0547.83852.14135 1.03465.4132.41317 4.78301 1.55834 5.15695 1.35144.13827-.0765.2514-.56385.2514-1.083zm13.54099-40.49697c-.076-.69134-.5274-6.23464-1.00304-12.31843-.47565-6.0838-.94002-11.13687-1.03197-11.22905-.0919-.0922-.64438.43185-1.22762 1.16451-.58327.73265-2.69564 3.19026-4.69417 5.46136-1.99851 2.2711-3.55821 4.31132-3.46596 4.53382.2633.63512 11.1787 13.64477 11.4483 13.64477.062 0 .0505-.56564-.0255-1.25698zM401.62339 339.93314c-1.25789-.71168-2.51602-2.50255-3.17629-4.52123-.44571-1.36267-.531-2.41329-.37863-4.66372.20965-3.09625.69868-4.81893 3.25104-11.45229.88672-2.30446 1.94288-5.28352 2.34704-6.6201.72074-2.3836 1.34562-3.1686 1.3341-1.67598-.01 1.26009-.86529 4.89501-2.14585 9.11673-2.32218 7.65571-2.32236 11.19732-.00067 13.23577 1.53375 1.34665 2.61302 1.58676 4.05072.90117 1.09409-.52174 1.91311-1.85603 3.31742-5.40451.25176-.63616.27225-.63039.40107.11302.19599 1.13087-.86327 5.63701-1.78847 7.60823-1.21306 2.58456-2.45037 3.59517-4.57514 3.73683-1.13251.0755-2.07933-.0587-2.63631-.37392zm103.74747-1.1959c.10682-.55308.28363-1.46715.39288-2.03128.13512-.69754.48362-1.13817 1.08938-1.37728.48992-.19337 9.48852-3.35865 19.99689-7.03397 10.50838-3.6753 22.76972-7.97714 27.24744-9.55964 4.47767-1.5825 8.2298-2.78877 8.33795-2.6806.10815.10818-.0104 1.06322-.26423 2.12231l-.46083 1.92563-3.18437 1.139c-10.00152 3.5774-52.79029 18.50142-53.04554 18.50142-.16709 0-.2164-.45252-.10957-1.00559zm-86.48898-.28426c-3.00464-1.40852-3.82207-3.39643-3.01798-7.3394.66861-3.27864 2.44424-6.26004 5.90701-9.91821 1.47229-1.55538 2.6769-2.903 2.6769-2.99472 0-.30927-5.02306-.64047-6.33972-.41803-.77933.13167-1.86488.69958-2.6943 1.40954-.76401.65395-1.46243 1.11567-1.55205 1.02605-.23922-.23922.47143-3.18831 1.02732-4.26329 1.07019-2.06952 4.44922-2.70806 9.77699-1.84759 2.00008.32304 3.69044.63325 3.75636.68937.0659.0562-.0803.88297-.32492 1.83744-.38342 1.49604-.94966 2.27318-4.10529 5.63434-7.30356 7.77924-8.04716 10.70269-2.99773 11.7856 3.96299.8499 9.96-1.11456 14.78643-4.84366 2.62066-2.02483 3.7507-2.70788 3.7507-2.26711 0 .63782-2.25395 3.38636-5.16318 6.29617-2.3932 2.39369-3.61437 3.32719-5.67687 4.33955-2.32093 1.13921-2.96671 1.30319-5.53072 1.4044-2.33387.0921-3.17271-.0118-4.27895-.53045zm126.23628-2.38025c0-.54605 1.92848-1.78985 9.88826-6.37761 4.24023-2.44393 9.59497-5.68787 11.89941-7.20878 12.20489-8.05497 25.01402-20.74236 29.16882-28.89145 1.12018-2.19716 1.1707-2.45436 1.27544-6.49133.0745-2.86907-.2163-7.65763-.91565-15.08381-.56358-5.98413-2.08703-23.24897-3.38544-38.36628-2.94624-34.30134-4.59888-52.13401-5.0326-54.30167-.18445-.92178-.72484-2.81005-1.20085-4.19616l-.86558-2.52018 2.2614-5.52451c1.24374-3.03847 2.45822-5.73918 2.69875-6.00155.37164-.40526.49364-.3296.81076.50279 6.16849 16.19132 9.99349 28.48417 9.13132 29.34634-.51128.51126-.77454.29099-3.08587-2.58223-1.34486-1.67173-2.03369-2.31083-2.03369-1.88691 0 .35257 1.34856 15.33219 2.99683 33.28803 1.6482 17.95584 3.19017 34.90956 3.42647 37.67493.59202 6.92688.5861 25.28658-.01 28.9944-1.48152 9.2265-4.17331 16.50908-8.67256 23.46368-3.22743 4.98864-8.47189 10.75684-11.95577 13.14975-4.83326 3.31968-14.34703 7.10299-27.96659 11.12134-7.6986 2.27143-8.43355 2.43624-8.43355 1.89121zm-59.16199-2.0842c-1.26302-.69854-2.24571-1.7887-3.12218-3.46358-.75429-1.44143-.87808-2.09818-.88448-4.69273-.009-3.60284.21493-4.46178 3.36271-12.90503 1.34028-3.59497 2.54049-7.10195 2.66709-7.79329.12663-.69134.38611-1.25699.5766-1.25699.61907 0 .004 4.01446-1.28778 8.37989-.68096 2.30447-1.45777 5.09497-1.72629 6.20111-.61311 2.52552-.43113 6.77173.33717 7.86864 1.55651 2.22225 4.3737 2.69408 5.95813.99792.8652-.92618 2.33132-4.1281 2.33132-5.09142 0-.27011.1071-.28257.3491-.0406.24198.24198.18305 1.15288-.1921 2.96904-1.02509 4.96279-2.41052 7.62735-4.53784 8.72742-1.11583.57703-2.88506.62301-3.83145.0996zm-336.87141-5.64452c-1.96479-.29744-5.41467-1.43097-7.35036-2.41511-9.45658-4.80787-15.45541-14.84146-16.21867-27.12719-.55827-8.98629.86876-18.70008 4.11894-28.03763.65008-1.86759 1.18194-3.47731 1.18194-3.57715 0-.0998-.55572-.18151-1.23495-.18151-1.75584 0-3.90242-1.14905-5.46689-2.92637-1.83611-2.08593-2.72487-5.01126-2.71112-8.92353.0195-5.55139 1.15193-9.73784 5.72564-21.16686 1.62309-4.05586 3.52663-9.14664 4.23009-11.31284.80852-2.48972 1.44799-3.93855 1.73837-3.93855.94664 0-.41558 5.41757-4.08773 16.25698-1.37404 4.05586-2.75447 8.64066-3.06764 10.18845-1.13437 5.60658-.0566 10.52849 2.77918 12.69142 1.01672.77549 1.53227.91901 3.30136.91901 2.58987 0 3.63812-.67881 4.82721-3.12594.4609-.94851.95112-1.72677 1.08939-1.72948.76002-.0149-.3856 5.84929-1.74161 8.91476-.37083.83833-1.14018 1.95949-1.70967 2.49147-.88373.82553-1.19946 1.61965-2.15511 5.42049-1.97212 7.84353-2.61794 12.54486-2.43051 17.69349.13074 3.59162.34921 5.14323 1.05898 7.52124 3.02512 10.13526 10.15345 17.21789 19.27518 19.15159 2.83073.60009 9.77599.59864 13.42898-.003 14.49814-2.38698 28.75976-9.62019 37.96482-19.25503l2.59384-2.71503-.001-2.09865c-.002-2.71217-.80578-15.30999-1.85265-29.03628-.45491-5.96655-.82723-11.13695-.82723-11.48978 0-.58554-.18282-.62347-2.09497-.43465-4.61257.45551-9.65922-1.49871-13.20015-5.1115-3.62293-3.69645-5.74281-9.05733-6.50901-16.46039-.54033-5.22071.0282-11.37967 2.02895-21.98284 1.03184-5.46815 1.24414-7.91838.6861-7.91838-.93098 0-3.15053 4.10486-4.66198 8.62191-1.43052 4.27518-2.07205 6.91977-4.23455 17.45604-2.88281 14.04591-4.16469 17.75725-7.14965 20.70006-1.60658 1.58388-4.34399 2.83091-6.21424 2.83091-4.49907 0-9.17432-4.76736-11.73132-11.96245-1.63345-4.59637-2.03895-7.68189-2.04011-15.52357-.00074-7.724.46052-11.9167 1.96444-17.84045.43416-1.7101.76438-3.13893.73383-3.17519-.0305-.0362-1.33314.44366-2.89465 1.0665-6.06112 2.41759-11.41972 2.17417-14.04708-.63812-.62106-.66477-.85102-1.34566-.9591-2.83977-.21368-2.95417 1.00219-5.40907 4.16885-8.41709 1.35713-1.28914 2.46751-2.40776 2.46751-2.48582 0-.0781-.44543-.23976-.98985-.35933-1.46283-.32129-2.64568-1.3981-2.87333-2.61575-.24207-1.29471.28753-3.8286 1.19103-5.69864.79514-1.64575.78836-1.51296.0744-1.45629-.86841.0689-.75354-3.39924.13471-4.06764 1.62836-1.22531 7.1817.67866 10.19182 3.49428 2.66009 2.48819 3.50027 4.16572 3.50027 6.98863 0 2.53472-.57403 4.36028-1.53231 4.87314-.80783.43234-3.85245.4057-5.48663-.048-1.25561-.3486-1.35373-.31963-1.99298.58846-.36978.52532-2.1512 2.40294-3.9587 4.1725-2.7724 2.71421-3.28635 3.38138-3.28635 4.26601 0 2.84269 5.25925 3.07032 12.93045.55966 3.94208-1.29018 7.43643-3.00647 11.87401-5.83205 1.7514-1.11518 3.24011-1.8639 3.30825-1.66381.19772.58055-5.27455 5.92719-7.69171 7.51512l-2.20469 1.44836-.56844 4.63013c-2.17899 17.74868-.94802 27.78927 4.01806 32.7742 2.15724 2.16543 4.57793 2.68999 7.00086 1.51707 3.41546-1.6534 5.00926-5.62007 8.54838-21.27535 3.09743-13.70145 4.76723-18.9672 7.91034-24.94532 4.06958-7.74029 7.88498-10.78685 9.981-7.96974.57386.77128.72529 1.5385.82161 4.1626.13632 3.71409-.17048 6.47088-2.00545 18.02032-.73227 4.60893-1.41654 10.18994-1.5206 12.40223-.55574 11.81435 3.83069 18.42023 12.53474 18.87708l2.7885.14636-.18348-1.80223c-.10091-.99122-.78546-9.79663-1.52123-19.56758-2.23109-29.6286-2.83921-35.5136-4.01361-38.84091-.55078-1.5605-.99115-3.1133-.97858-3.45068.0356-.95697 4.45508-11.27398 4.89015-11.41588.93114-.3037 9.26474 23.81535 9.72597 28.14882.28901 2.71539-.35551 2.55734-2.96942-.72815-1.16198-1.46053-2.16104-2.60718-2.2201-2.54812-.14469.1447 3.65361 48.90913 3.82331 49.0856.0735.0764 1.39658-.48687 2.94018-1.25175 6.21875-3.08152 10.29501-9.70894 11.2524-18.29481.85173-7.63845-1.49521-22.85508-4.98476-32.31916-.56544-1.53353-1.02806-3.06831-1.02806-3.41064 0-1.12407 4.1166-12.09348 4.4942-11.97558.56586.17667 4.43831 11.81573 6.04686 18.17445.79281 3.13408 1.8459 8.41341 2.34018 11.73184 2.50652 16.82778 3.4459 21.13254 5.57468 25.54629 3.44134 7.13516 10.73314 10.58693 18.23625 8.63262 3.81332-.99324 6.88323-3.24696 6.88323-5.0532 0-1.25813-1.0609-4.14431-3.87729-10.54818-5.27916-12.00369-8.04656-21.06706-9.04994-29.63898-.14228-1.21557-.80524-3.30068-1.67587-5.27087l-1.44046-3.2597 1.99429-5.95818c1.94657-5.81564 2.47145-7.10834 2.7555-6.78645.0766.0868 1.76792 2.79755 3.7584 6.02381 8.10862 13.14277 8.94927 14.7486 7.72093 14.7486-.30663 0-1.62745-.4553-2.93516-1.01178-1.30772-.55649-2.45717-.93229-2.55433-.83513-.0972.0972 1.64974 5.71867 3.88202 12.49224 4.39881 13.34763 5.52539 17.39188 6.13845 22.03622.77752 5.89027-.26743 11.77738-3.1186 17.56976-3.77926 7.67789-10.81315 10.73567-19.35485 8.41397-7.17647-1.95062-12.78073-8.80335-15.29037-18.69664-.83155-3.27806-1.13713-4.04928-1.14969-2.90161-.009.8404-1.36075 5.38375-2.48452 8.35195-1.31712 3.47886-4.06487 8.2482-6.00826 10.42862-1.71962 1.92938-5.99797 4.99812-7.49049 5.37271-.72144.18108-.78068.33413-.61341 1.58502 1.18496 8.86226 1.71383 31.55364.89553 38.42369-.92096 7.73184-2.05298 11.62244-4.37779 15.04588-7.00426 10.31422-20.60779 19.18462-35.81162 23.35153-6.94601 1.90369-14.52453 2.60572-19.68898 1.82388zm-1.30147-144.61623c.24763-.64531-1.53167-3.18512-3.27945-4.68116-.77311-.66176-1.50382-1.2032-1.62381-1.2032-.11997 0-.20595.79191-.19106 1.75978.0149.96788-.0807 2.24218-.21246 2.83178-.23316 1.04344-.20189 1.08044 1.17318 1.38868 2.21486.49649 3.92148.45691 4.1336-.0959zm-7.04846-1.69441c.38848-1.5478-.69687-4.18995-1.72114-4.18995-.63963 0-3.50434 2.62187-3.50434 3.20727 0 .57156.41741.81311 2.30376 1.33314 2.30639.63584 2.68559.59035 2.92172-.35046zm251.19471 137.09035c-1.36397-1.45189-1.31265-4.00897.16135-8.04011.67411-1.84357 1.35686-3.65363 1.51722-4.02234l.29155-.67039.0185.67039c.0102.36871-.3567 2.02687-.8153 3.68479-.96751 3.4977-1.03553 4.76075-.31203 5.7937.97456 1.39136 2.45372.85409 3.38953-1.2312.57439-1.27994.53418-.11768-.0659 1.90282-.80287 2.70352-2.64914 3.54717-4.18499 1.91234zm35.02376-10.76249c-1.5822-1.70722-1.44598-3.54845.72171-9.75466.52951-1.51601 1.07874-2.76042 1.22052-2.76536.3003-.0104.11109.96255-.79852 4.10627-1.19748 4.13873-.73955 6.611 1.22453 6.611.77432 0 1.83018-1.25017 1.83018-2.16698 0-.28303.13671-.51459.30381-.51459.60537 0-.49827 3.60979-1.40912 4.60894-.91266 1.00114-2.09389.95356-3.09311-.12462zm-70.92226-2.40847c-1.02056-.91186-1.05639-1.03862-1.16092-4.10615-.0787-2.30894.0173-3.333.35508-3.78539.83984-1.12505 1.16441-.322.96705 2.39263-.20183 2.77589.0627 3.49789 1.42971 3.90248.49802.1474 1.03379-.0555 1.75977-.66633 1.14046-.95964 1.28279-1.78792.68014-3.95827-.37505-1.35076-.16476-3.05287.33874-2.74169.15987.0988.46623 1.18776.68079 2.41991.56197 3.22703 1.11596 4.11616 2.5712 4.12663 1.22292.009 1.59115-.79099.94207-2.04617-.9344-1.80692-1.1386-2.91625-.7448-4.04592l.36623-1.05055.97545 2.65202c1.08637 2.95361 1.05348 4.10964-.15851 5.57117-1.12131 1.35217-2.2744 1.49861-3.52361.44747-1.02017-.85842-1.03622-.86056-1.25619-.16749-.22565.71098-1.99608 1.99301-2.75543 1.99531-.22754.00067-.88759-.42216-1.46677-.93966zm-173.45805-1.59714c-1.26504-.62417-2.416-2.58048-2.6887-4.57003-.2809-2.04938.33707-4.73633 2.23424-9.71451.89139-2.33901 1.72152-4.79013 1.84473-5.44692.12322-.6568.37522-1.19417.55998-1.19417.49838 0 .0553 2.41651-1.26657 6.90901-.71264 2.42184-1.15468 4.64323-1.1539 5.79883.002 3.12625 1.55652 4.82599 3.8801 4.2428.65157-.16353 1.10199-.72992 1.82819-2.2989 1.0356-2.23746 1.21734-1.99169.61715.83455-.5522 2.6002-1.60224 4.61576-2.77828 5.33291-1.24447.75887-1.72119.77536-3.07694.10643zm262.59529-1.99288c-.10686-.10683-.0235-.95413.18509-1.88289l.37935-1.68866 14.18795-5.19655c7.80338-2.85811 14.23923-5.14526 14.30195-5.08257.18403.18405-.48342 3.41683-.75543 3.65881-.13666.12157-6.35738 2.44924-13.82386 5.17261-7.46648 2.72336-13.73413 5.01051-13.92811 5.08253-.19401.072-.44011.0436-.54694-.0633zm-310.66452-.63239c0-.3414 4.01661-3.20789 10.81006-7.7147 15.38446-10.20613 22.91426-16.09583 30.05102-23.50547l3.43831-3.56978-1.78656-1.17307c-3.04872-2.0018-4.54542-3.3916-5.27458-4.89785-.85113-1.75819-.91179-4.19022-.1596-6.3978 1.08892-3.19579 5.68452-7.01555 9.46148-7.86417 5.31035-1.19317 7.56186 4.45242 4.85357 12.17022-.45582 1.29897-.90577 2.60716-.99988 2.90709-.11982.38188.44019.97414 1.86837 1.97595 1.12171.78684 2.03947 1.49127 2.03947 1.56543 0 .21434-2.60585 4.90208-3.08544 5.55049-.40273.54449-.57947.49006-2.44528-.75313-1.10615-.73701-2.09393-1.34051-2.19507-1.3411-.10114-.00067-1.1755 1.24334-2.38746 2.76429-3.14879 3.95158-8.88269 9.88001-12.45903 12.88173-5.20703 4.37039-12.35071 8.67623-24.69027 14.88201-5.80962 2.92176-7.03911 3.36189-7.03911 2.51986zm47.9273-43.94281c.006-2.48114-.78855-4.22506-2.07652-4.55948-1.89313-.49157-5.12119.84786-4.72943 1.96238.56533 1.60827 6.04838 5.78476 6.55507 4.99306.13545-.21163.24834-1.28981.25088-2.39596zm339.39176 42.20935c-1.55042-.80841-2.10634-1.43352-3.07968-3.46279-.75667-1.57757-.8999-2.3271-.90284-4.72422-.004-3.28458.51783-5.23258 3.45737-12.90503 1.05948-2.76536 2.12336-5.78212 2.3642-6.7039.696-2.66427 1.1119-2.66427.91588 0-.10273 1.39596-.81261 4.44855-1.7526 7.53632-2.44901 8.04453-2.44012 11.55896.0347 13.73183.88944.78094 1.48602 1.02234 2.5266 1.02234 2.01074 0 2.91473-1.0889 4.69713-5.65784.55408-1.42029.70649-.47015.29949 1.867-1.32696 7.61996-4.71619 11.30062-8.56021 9.29629zm32.9727-15.10096c-.48473-.31157-1.27049-1.1667-1.74616-1.90028-1.7042-2.62827-1.60144-6.4103.3199-11.77363.6657-1.85824 1.7871-5.01573 2.49198-7.01666.70488-2.00092 1.38768-3.73556 1.5173-3.85475.5639-.51847-.28244 4.12773-1.39535 7.66039-2.48796 7.89733-1.67849 12.40223 2.22848 12.40223 1.50663 0 2.35286-.88694 3.24629-3.40242.31757-.89403.69276-1.62551.8338-1.62551.36335 0 .3269.39418-.2883 3.11819-.65306 2.89103-1.54987 4.90843-2.63554 5.92838-1.06163.99734-3.37719 1.23236-4.5724.46406zm-402.37765-5.40449c-1.22024-4.35227-2.91692-8.07139-4.63135-10.15189l-.70061-.85021-.67655.74323c-.66053.72564-.71486.73053-2.29428.20664-1.90365-.63143-3.5778-2.07369-3.5778-3.08221 0-.39306.37963-1.46383.84364-2.37948.81395-1.60627.8942-1.66484 2.28074-1.66484 3.46738 0 7.42014 4.63916 9.42481 11.06145.3165 1.01396.6582 2.06983.75933 2.34637.10112.27653.53771-1.75978.97019-4.52514 1.28429-8.21199 2.61612-11.22905 4.95686-11.22905.78124 0 1.37358.3877 2.61885 1.71408.8851.94274 1.60926 1.91807 1.60926 2.1674 0 .35955-.85439 2.51861-1.23288 3.11554-.0438.069-.55009-.2704-1.12516-.75429-.57507-.48389-1.41071-.97144-1.85699-1.08345-2.10076-.52725-2.73258.71558-3.6966 7.27145-.89705 6.10036-1.35996 8.0006-2.09566 8.60278-.83352.68225-1.00861.51465-1.5758-1.50838zm214.83349-5.25888c.37911-3.22558.42162-3.27019 4.45351-4.67287 2.00024-.69587 18.49435-6.37007 36.65356-12.60932 18.15921-6.23926 36.92724-12.71237 41.70672-14.38471 4.77948-1.67234 8.76151-2.96908 8.84896-2.88164.15413.15412-.53732 4.9008-.744 5.10748-.17638.17636-16.00752 5.67052-46.45973 16.12373-16.13128 5.53733-32.62863 11.20919-36.66077 12.60416-4.03215 1.39496-7.48448 2.5363-7.67185 2.5363-.21527 0-.2618-.67108-.1264-1.82313zm48.91908 1.3209c-.39437-.27623-.97675-1.18229-1.29418-2.01347-.68952-1.80547-.53084-3.82393.52914-6.73083.3976-1.09039 1.16872-3.25896 1.71361-4.81906.54489-1.56009 1.08022-2.91764 1.18964-3.01676.35758-.32393-.23504 2.77789-1.05426 5.51811-1.63904 5.48246-1.06542 8.40619 1.59866 8.14825.88465-.0857 1.1975-.35703 1.80908-1.56928 1.00964-2.00125 1.20656-2.11831.9175-.54545-.38747 2.10842-1.11377 3.93613-1.89431 4.76699-.838.892-2.44411 1.0115-3.51488.2615zm23.07896-2.33777c-2.44378-2.78333-2.2982-5.91681.63114-13.58457.88036-2.30447 1.70675-4.75559 1.83637-5.44693.12962-.69134.38685-1.25698.57161-1.25698.49951 0 .041 2.51322-1.27385 6.98128-1.71271 5.82055-1.49175 9.05603.68635 10.04842 1.84851.84224 2.92226.166 4.15438-2.6163.82387-1.86046.92527-.94703.20282 1.82672-1.01004 3.87783-2.19197 5.21239-4.61624 5.21239-.91632 0-1.3925-.25279-2.19258-1.16403zm-198.98217-4.17104c.36359-.35329 3.22533-2.33408 6.35941-4.40176 8.1128-5.35238 12.70784-8.88562 17.02001-13.08716l3.7621-3.66557-1.17318-.91288c-2.01743-1.5698-3.2877-3.05032-3.51843-4.10079-.54742-2.49243 1.73114-5.94073 4.85921-7.35375 1.96421-.88727 2.77933-.86815 3.89481.0913 1.29446 1.11345 1.48451 3.89807.471 6.9013l-.72825 2.158 1.25134 1.05056 1.25133 1.05057-.94461 1.73557c-.51954.95457-1.1092 1.73222-1.31035 1.72812-.20114-.004-.74281-.30242-1.20371-.66294-.46089-.36052-1.00819-.65884-1.21622-.66293-.20803-.004-.99002.78444-1.73777 1.75232-2.205 2.85411-8.41266 8.73029-11.12421 10.53019-1.38268.91781-4.77654 2.89251-7.5419 4.38823-6.93837 3.7528-9.95362 4.99972-8.37058 3.46159zm29.55685-27.56685c-.097-.72287-.35916-1.53465-.58266-1.80396-.52106-.62783-2.35142-.63155-3.19318-.007-.84729.62918-.46874 1.27733 1.71854 2.94247 1.40352 1.06848 1.68045 1.1707 1.93571.71458.16383-.29275.21854-1.12372.12159-1.84659zm316.10263 21.96957c-.12845-.20553-.22971-2.01559-.22505-4.02235.0133-5.96074-1.43189-9.40094-5.8138-13.83539l-2.18926-2.2155.38579-2.23788c.21208-1.23084.47943-2.33014.59395-2.44288.11452-.11275 1.21989.88763 2.4563 2.22307 1.60086 1.72915 2.66534 3.30066 3.69796 5.45963 1.88969 3.95105 2.33852 5.96191 2.28503 10.23829-.0437 3.5073-.74728 7.54316-1.19092 6.83301zm-230.91962-4.44703c-.1301-4.17562-.17282-4.38672-1.38352-6.83639-.80514-1.6291-2.08978-3.42775-3.61351-5.05934l-2.36425-2.53161.47571-2.27541.47571-2.27541 1.82185 1.91336c3.63623 3.81887 5.57202 8.23532 5.89631 13.45233.17972 2.89135-.34974 7.4117-.9086 7.75709-.146.0902-.32587-1.77484-.3997-4.14462zm-17.01089.79632c-.0476-3.32869-.95451-10.16403-2.05093-15.45843-2.05233-9.91022-2.16456-10.72871-1.74524-12.72782.63368-3.0211 2.04861-4.47563 4.86833-5.00461 1.56872-.2943 1.5814-.66655.04-1.17524-1.16397-.38414-1.2515-.35339-2.54922.89579l-1.34387 1.2936.24376-1.17319c.32142-1.54692 1.25761-3.36237 2.15015-4.16958.5633-.50944.67041-.87194.49518-1.67598-.33837-1.55268-1.72698-4.53705-2.71186-5.8283-.87626-1.14884-.87726-1.14915-1.41358-.43954-.47592.62968-.67901.67075-1.79314.36263-.69104-.19111-1.66506-.69895-2.1645-1.12856l-.90807-.78108.63828-1.41545c1.00767-2.23462 2.5154-2.48648 4.77092-.79696 1.79176 1.34214 3.14903 3.58483 4.63612 7.66054.16653.45638.43337-.43806.83593-2.80193.7136-4.19046 1.46341-6.27165 2.50553-6.95448.68864-.45122.88972-.4534 1.72674-.0187.52103.27056 1.28342.9486 1.69421 1.50674.70481.95764.71847 1.08279.24258 2.22177l-.50431 1.20697-1.1122-.84832c-.61172-.46659-1.34459-.84833-1.62861-.84833-.91837 0-1.56393 1.54228-2.12728 5.08216-.30332 1.90593-.62736 3.88013-.72008 4.38711-.13046.71324-.0384.92179.40712.92179.31664 0 1.4758.91985 2.5759 2.04413 1.95184 1.99473 1.99462 2.07776 1.77002 3.43575-.32169 1.94511-.38276 1.99474-2.16349 1.75852-3.30336-.4382-7.03961 1.16265-7.03961 3.01625 0 .44527.7027 4.31593 1.56155 8.60148 1.47735 7.37175 1.56186 8.09013 1.56725 13.32263.004 3.16726-.15039 5.96044-.35956 6.53631-.33731.92867-.36745.85159-.39406-1.00764zm-115.67845-1.43468c-2.3689-2.36889-2.57242-6.02208-.63431-11.38549.58272-1.61258 1.60651-4.54773 2.27509-6.52256 1.15248-3.40415 1.71839-4.38841 1.71839-2.9887 0 .5879-.73847 3.52853-2.36774 9.42845-1.35201 4.89589-.0757 8.3799 3.06991 8.3799.88773 0 2.18863-1.44214 2.675-2.96542.6135-1.9215 1.1025-2.14484.84634-.38654-.69029 4.73815-2.66075 7.7095-5.11259 7.7095-.94289 0-1.47368-.27272-2.47009-1.26914zm55.5524-1.31093c-.0873-.14801-.25997-2.22999-.38374-4.62663-.78555-15.21019-5.25006-73.15003-5.69157-73.86441-.086-.13909-.60112-1.47175-1.1448-2.96146l-.98851-2.70858 2.39316-5.77088c1.31624-3.17398 2.544-5.77103 2.72836-5.77122.49278-.00033 2.83137 6.09169 6.20344 16.16036 3.08479 9.21088 3.96029 12.54168 3.56638 13.56818-.22018.5738-.26339.57238-.9451-.031-.3929-.34772-1.59646-1.73568-2.67458-3.08435-1.0781-1.34867-1.95992-2.2537-1.95959-2.01117.00074.70655 2.64925 36.59056 3.01344 40.832.39711 4.62473.4084 14.92315.0189 17.26256-.15346.92179-.24833 1.71038-.21084 1.75243.15705.17608 11.68925-7.63606 14.40549-9.75856 2.91261-2.27593 9.25284-8.1294 9.25284-8.54245 0-.23014-2.68857-1.72203-3.10056-1.7205-.13827.00067-.2514.19766-.2514.4381 0 .83479-2.00342 3.59033-3.09363 4.25503-1.64666 1.00397-3.01521.871-4.39112-.42664-1.49254-1.40765-2.03349-3.35728-1.80072-6.48997.34036-4.58082 2.64676-8.88015 7.29614-13.60067 2.62207-2.66218 3.67295-3.47691 5.768-4.47185 4.60822-2.18843 8.28799-1.80192 8.79135.92341.32275 1.74747-.92784 5.17685-2.91775 8.00107-1.70331 2.41745-1.75135 2.54864-1.65392 4.51629.0684 1.38063-.11126 2.62858-.56358 3.91553-.53684 1.5274-.57745 1.9222-.21213 2.06238.24849.0954.6911.63611.98357 1.20169.41997.81212.46032 1.29361.19197 2.29017-.4185 1.55424-1.3191 2.7802-1.57979 2.15055-.0982-.23726-.56529-.89093-1.0379-1.4526l-.85929-1.02121-.86533 1.11739c-1.41187 1.82316-4.73974 5.33069-7.07263 7.45445-2.87732 2.61941-5.41239 4.23373-12.10812 7.71042l-5.56202 2.88802-.58934 2.72765c-1.08729 5.03233-2.36272 8.09084-2.95508 7.0864zm21.77171-30.78601c1.57728-.92435 1.57494-.91918 1.46736-3.2421-.10712-2.31292.50558-3.76016 2.2372-5.28439 1.85883-1.63621 3.7629-2.29911 5.12597-1.78462.93139.35156.96302.32292 1.86689-1.69117 1.20066-2.67541 1.26994-4.73507.18875-5.61081-1.64512-1.33248-4.698-.61933-8.35558 1.95186-2.48821 1.74915-4.37275 4.02766-6.02117 7.27992-.97623 1.92606-1.22575 2.83644-1.35217 4.93338-.14576 2.41785-.10339 2.62308.70928 3.43574 1.09813 1.09814 2.27452 1.10161 4.13347.0121zm8.02393-3.35231c.11806-.47038-.001-1.40937-.26614-2.09497-.44142-1.14245-.58193-1.23921-1.74476-1.20171-1.47551.0476-2.34056.74417-2.00621 1.61549.21712.56582 2.96655 2.53366 3.53997 2.53366.14475 0 .35946-.38361.47714-.85247zm128.34345 20.52364c-.13918-.33448-.16687-1.33589-.0615-2.22536.50675-4.27881-1.10037-8.54737-4.62431-12.28223l-2.18371-2.31442.33432-1.81435c.18388-.99789.42638-1.90292.53888-2.01117.41484-.39918 3.89375 3.8813 5.00882 6.16288 1.75876 3.59879 2.28419 6.13049 2.05401 9.89727-.22505 3.68249-.66164 5.56043-1.06649 4.58738zm-87.46882-6.6218c.12184-.19715 3.71314-2.67643 7.98067-5.50951 8.85683-5.87979 13.69087-9.63193 18.4854-14.34826l3.35195-3.29728-1.00559-.72928c-.55307-.40111-1.72206-1.42421-2.59776-2.27357-1.46627-1.42217-1.59219-1.67225-1.59219-3.16233 0-3.11738 1.77658-5.49322 5.32854-7.1259 1.48274-.68154 2.02679-.77767 3.01676-.53301 2.37841.58781 3.03977 4.01289 1.59401 8.25517l-.76963 2.25835 1.28109.88779c.70459.48829 1.28108 1.02313 1.28108 1.18854 0 .47124-1.62547 3.55965-1.99306 3.78683-.18141.11212-.9553-.21008-1.71978-.71598l-1.38994-.91982-.71677.98879c-1.43934 1.98559-4.92264 5.80575-7.31478 8.02215-4.19915 3.89066-8.07749 6.36253-17.69458 11.27767-4.21847 2.156-6.05302 2.80332-5.52542 1.94965zm32.33199-29.43681c0-2.07518-.79535-3.17142-2.2705-3.12948-1.25389.0356-2.42224.61196-2.42224 1.19481 0 .45616 1.65141 2.11445 3.00754 3.02007 1.37551.91855 1.6852.71909 1.6852-1.0854zm197.90682 25.31498c-1.47286-.66637-2.99357-2.66211-3.67211-4.81935-1.14648-3.64494-.42616-7.49843 3.11743-16.67802.92514-2.39665 1.94443-5.30028 2.26503-6.45251.74261-2.66931 1.32737-2.76418 1.03292-.1676-.23401 2.06345-.46083 2.96919-2.37111 9.46927-1.99532 6.78955-1.68042 10.74894.98618 12.39695 2.42807 1.50066 4.80459.24625 6.0227-3.17907.98084-2.75818.97566-2.75013 1.11448-1.72409.18311 1.3543-.85069 5.7333-1.85361 7.85156-1.43434 3.02935-4.2031 4.40619-6.64191 3.30286zm-228.84794-.78136c-.0905-.14799-.2662-2.3054-.39043-4.79422-.12424-2.48883-.59194-9.40423-1.03935-15.36756-.44739-5.96334-.81355-10.86557-.81368-10.89385-.00013-.0283-1.84789-.0589-4.10614-.0681-3.45259-.014-4.41184-.13752-6.02845-.77646-4.59975-1.81796-7.91896-5.04444-10.13985-9.8566-3.56468-7.72381-3.71229-16.91383-.53541-33.33434.94742-4.89695 1.2039-7.46848.74491-7.46848-.74183 0-2.74336 3.2482-4.02768 6.53631-1.66523 4.26337-2.89923 9.11071-5.22033 20.50628-3.19724 15.69708-4.89351 19.48964-9.73709 21.77055-7.44833 3.50751-14.9613-4.76174-16.94026-18.64555-.53896-3.78123-.44239-12.71388.19066-17.6357.56495-4.39226 2.08285-11.07203 2.89449-12.73764.61576-1.26365 1.28528-1.41715 1.28528-.29468v.89622l2.59777-1.41251c7.51462-4.08601 18.38596-11.94147 20.87464-15.08368l1.02642-1.29596-1.35022-.36357c-.74262-.19997-1.76743-.72277-2.27735-1.16177-.79837-.68733-.92032-1.02891-.87806-2.45944.027-.9137.36638-2.37858.7542-3.25529.83877-1.89619.86504-2.1792.20231-2.1792-1.21083 0-.0322-3.20494 1.30187-3.53974 1.67749-.42103 6.19678 1.405 8.19593 3.31157 1.34516 1.28287 2.58928 3.35481 2.89458 4.82061.3603 1.72979-.15256 4.14793-1.07547 5.07084-.78111.78111-.96549.81273-3.63952.62402l-2.81672-.19878-.54471 1.07305c-2.60677 5.13536-14.39793 13.58399-22.97861 16.4647l-2.45466.82407-.61298 4.46198c-.89705 6.52969-.95638 18.89155-.10828 22.56252 1.14625 4.96162 3.86728 9.33719 6.49262 10.44054 1.23441.51878 3.37259.59227 4.52167.15539 1.20595-.4585 2.90969-2.35701 3.94393-4.39481 1.30249-2.56634 2.39015-6.1852 4.02976-13.40782 3.82763-16.86101 5.26616-21.59596 8.55425-28.15642 3.07694-6.13919 6.06264-9.51955 8.40811-9.51955 1.40814 0 1.97844.70145 2.52952 3.11121.49864 2.18046.0713 7.71423-1.23277 15.96141-1.92851 12.19687-2.16381 14.18667-2.16028 18.26815.002 2.30447.21534 5.1888.47411 6.40961.94996 4.48168 3.68239 8.23206 7.0491 9.6752 3.05168 1.30811 8.89335 1.85091 8.89335.82636 0-.90435-3.64568-50.63113-4.87686-66.52009-1.60038-20.65346-1.63079-20.909724-2.84996-24.012174-.56968-1.44972-1.03754-2.93754-1.03968-3.30625-.004-.67749 4.254-11.15228 4.74947-11.68403.14727-.15806.42704.0102.6217.37394.70493 1.31718 4.37137 11.46139 6.51083 18.013984 2.37961 7.28817 3.15808 10.45518 2.79957 11.38942-.22018.57379-.26338.57238-.94509-.031-.39291-.34772-1.59647-1.73567-2.67458-3.08433-1.07811-1.34867-1.96021-2.38154-1.96021-2.29526 0 .38125 5.06782 70.20442 5.36591 73.93012.18283 2.28515.33241 4.60178.33241 5.14806 0 .91609.0716.97531.9218.76224 3.66048-.91736 8.51551-5.84974 10.57544-10.74391 1.81746-4.31808 2.07487-5.9 2.04406-12.56144-.0433-9.34464-1.60964-18.33107-4.80469-27.56429l-1.36097-3.93302 2.13986-5.88908c1.17693-3.23899 2.2407-5.9899 2.36393-6.11313.36623-.36623.66613.35634 2.84065 6.84405 2.75818 8.22904 4.4804 15.11564 5.56237 22.24207 2.75925 18.17388 3.51129 21.71303 5.53872 26.06555 2.35559 5.05705 6.74543 8.56489 11.8883 9.49974 4.5837.8332 11.58507-1.51546 13.06839-4.38388.69526-1.34448.0721-3.48506-3.17389-10.90209-5.62991-12.86434-7.6749-19.34384-9.20379-29.162-.3595-2.30862-.95287-4.36153-1.90634-6.59545l-1.38436-3.2435 2.10094-6.23489c1.15553-3.42918 2.21788-6.30714 2.36077-6.39546.1429-.0883.60278.40601 1.02197 1.0985.41918.6925 2.6732 4.35125 5.00892 8.13058 4.46776 7.22906 6.01803 10.03249 6.01803 10.88271 0 .76983-1.02805.62622-3.51956-.49165-1.23269-.55307-2.291-1.00558-2.35179-1.00558-.23149 0 1.28998 4.87843 4.54748 14.581 3.64311 10.85117 5.14643 16.43466 5.65658 21.00913.62501 5.60452-.58804 11.68583-3.42476 17.16916-3.99219 7.71682-11.41604 10.58416-19.96946 7.71287-6.89772-2.31549-11.66014-8.23722-14.26279-17.73475-.5052-1.84357-.96159-3.50279-1.0142-3.68715-.0526-.18435-.27435.34358-.49277 1.17319-1.13363 4.30586-2.38007 7.61861-4.34923 11.5593-1.89071 3.78368-2.51588 4.69647-4.71201 6.87978-1.4896 1.48092-3.39489 2.97269-4.62779 3.62341l-2.09572 1.10611.25215 1.40452c.13868.77249.25214 5.32631.25214 10.11961 0 8.42088-.0323 8.85086-.95651 12.73742-1.69551 7.13001-2.6896 9.70687-3.33656 8.64898zM327.82072 128.3183c-.77533-1.31952-3.38664-4.10614-3.8478-4.10614-.148 0-.2684.64105-.26755 1.42457.00074.78352-.0706 1.86964-.15873 2.41359-.18831 1.16217.41328 1.43707 3.26419 1.49155l1.74848.0334-.73859-1.25699zm-5.73395-1.33587c-.26957-1.96671-1.16396-3.00022-2.14294-2.47629-.93172.49865-2.47774 2.39008-2.32852 2.84877.13061.40146 2.55837 1.14292 3.88926 1.18781.76331.0258.78984-.0453.5822-1.56029zm199.9131 99.95376c-.0174-5.78992-1.26229-8.89267-5.28523-13.17456l-2.09072-2.22525.36533-2.09788c.20095-1.15383.48805-2.09787.63802-2.09787.14993 0 1.10256.91708 2.11692 2.03798 4.30136 4.75318 6.19709 10.974 5.25309 17.23811-.61124 4.05583-.98572 4.17578-.99741.31947zm-276.20103-2.51397c-.018-5.63586-1.36368-8.92768-5.26686-12.88354l-2.07233-2.10029.38063-2.22207c.20934-1.22214.48876-2.22206.62092-2.22206.43348 0 3.4547 3.59825 4.57158 5.4447 2.39126 3.95333 3.45925 9.08984 2.80483 13.48988-.59821 4.02203-1.02687 4.22563-1.03877.49338zm21.14543.80695c-1.12858-.7905-2.03359-3.03052-2.04212-5.05455-.007-1.75835.4508-3.37198 2.9781-10.48763 1.77236-4.99012 1.89568-3.32754.19889 2.68157-.64525 2.28513-1.17318 4.73319-1.17318 5.44012 0 2.54599 1.30568 4.28054 3.22218 4.28054.72099 0 2.06448-1.57036 2.31351-2.7042.3128-1.42415.96097-1.6829.67808-.27069-.94088 4.69688-2.20039 6.66204-4.26983 6.66204-.61841 0-1.47594-.24624-1.90563-.5472zm200.07353-1.50535c-1.09576-.43693-2.27478-1.55493-2.96109-2.80778-.4093-.7472-.58086-2.12526-.66754-5.36313-.0642-2.39665-.13052-4.83599-.14745-5.42075-.0198-.68634.30643-1.50527.92044-2.31026.90587-1.18768.97378-1.21684 1.42683-.61276.32957.43945.41444 1.0976.27631 2.14266-.8699 6.58162-.52609 8.84698 1.50183 9.89566 1.97917 1.02347 4.87968-.29908 5.86287-2.67331.47364-1.14365.17947-3.88688-.70833-6.60584-.45422-1.39111-.45503-1.69406-.007-2.76536.95071-2.27539 1.49346-1.29969 2.37171 4.26359.28548 1.80836.73173 3.79694.99168 4.41907.85494 2.04618 4.13778 2.92647 5.57054 1.49373.79492-.79491.74346-1.0517-.89638-4.47342-1.21217-2.52938-1.39783-4.09732-.7437-6.2806.44192-1.47499 1.28772-1.75386 1.28772-.42456 0 .47922.60336 2.3678 1.34079 4.19685 1.56733 3.88744 1.67285 5.43365.53728 7.87242-1.95013 4.18814-5.35961 5.16615-7.90468 2.26747-.57959-.66013-1.09548-1.14669-1.14643-1.08124-.051.0654-.58737.85082-1.19209 1.74528-.71994 1.06489-1.57757 1.84339-2.48447 2.25521-1.55665.70686-2.0278.74583-3.22844.26707zm-277.17044-2.52496c-2.37563-2.37562-2.58582-5.64375-.70486-10.95941.53155-1.50217 1.57725-4.46586 2.32379-6.58597.74653-2.12011 1.37355-3.70392 1.39336-3.51956.12962 1.2056-.24545 3.18682-1.26881 6.70223-1.8611 6.3932-1.82804 9.01237.13322 10.55509 1.85203 1.45682 3.58677.53475 4.78992-2.54601l.63997-1.63868.0157 1.22167c.0233 1.81951-1.23585 5.53938-2.26498 6.69107-.64178.71822-1.31538 1.06654-2.32413 1.20181-1.31522.17637-1.51768.0932-2.73315-1.12224zm21.35847-2.28629c-.50307-.28338-1.29538-1.3215-1.80751-2.36826-1.35568-2.77091-1.05559-5.33631 1.39816-11.95213 1.03804-2.79881 2.0808-5.70107 2.31724-6.44948l.42988-1.36073.0332 1.34289c.0182.7386-.58081 3.45368-1.3312 6.03352-1.1183 3.84473-1.34161 5.0764-1.23829 6.8298.1125 1.90899.24185 2.24263 1.20204 3.10056 2.02264 1.80723 3.7694 1.03561 5.11671-2.26027l.66986-1.63868-.1614 1.67597c-.22708 2.35785-1.14594 4.97997-2.17518 6.20722-1.05551 1.25857-3.04415 1.63349-4.45346.83959zm342.93391-1.01329c-.0392-.18435-.0992-2.06983-.1334-4.18994-.0942-5.83729-1.6011-9.34762-5.86958-13.67294-1.49383-1.51373-2.14662-2.42301-2.08035-2.89777.0531-.38053.25089-1.48082.43954-2.4451l.343-1.75324.98336.72702c1.46099 1.08016 3.89515 4.32212 5.1707 6.88662 2.08616 4.19431 2.86361 8.96071 2.20086 13.49323-.38729 2.64854-.90664 4.54649-1.05413 3.85212zm-141.89338-1.33938c-2.08234-1.92984-2.72819-5.42048-1.71949-9.29318.27087-1.0399 1.24271-3.85265 2.15965-6.25055.91694-2.39791 1.7683-4.89887 1.8919-5.5577.1236-.65883.38198-1.29507.57419-1.41386.62524-.38642-.0233 3.27407-1.32183 7.4603-.91179 2.93953-1.2441 4.61902-1.26035 6.36964-.0248 2.67517.40822 3.77344 1.8157 4.60485 1.99238 1.17693 3.2583.44829 4.56033-2.62481l.8521-2.01117-.16519 1.84357c-.24029 2.68186-1.19777 5.29279-2.41376 6.58212-.89987.95415-1.2943 1.12738-2.5669 1.12738-1.13864 0-1.72278-.20308-2.40635-.83659zm-246.68686-2.18017c-.0894-.27654-.24472-1.86034-.34519-3.51955-.10048-1.65922-.63781-5.27933-1.19406-8.04469-1.16644-5.79885-1.22292-6.84126-.48762-8.99925.75182-2.20645 2.14063-3.47356 4.53765-4.13998 1.63549-.45471 1.9127-.63134 1.55392-.99013-.24018-.24018-.89516-.52838-1.4555-.64044-.86915-.17384-1.19953-.0177-2.24913 1.06291-.67668.69668-1.30044 1.19656-1.38615 1.11085-.0857-.0857.1965-1.20279.62714-2.48242.52111-1.54848 1.09911-2.57867 1.72826-3.08034.92694-.73912.93723-.7849.53017-2.35892-.54385-2.10296-2.5364-6.17045-3.41003-6.96108-.67184-.60799-.70047-.60796-1.14591.001-.40675.55626-.6034.58088-1.79286.22451-1.71609-.51428-3.10275-1.60895-3.10275-2.44955 0-.36267.30474-1.25675.67721-1.98683.59576-1.16779.81948-1.32744 1.86022-1.32744 1.59305 0 2.85077.70431 4.31728 2.4176 1.41963 1.65851 3.41804 5.49357 3.73047 7.15895.32793 1.74798.69937 1.38075.95612-.94526.36921-3.34512 1.18604-7.0109 1.89308-8.49593.53606-1.12591 1.72983-2.14653 2.51067-2.14653.48328 0 3.16109 2.8623 3.16109 3.37887 0 .50251-.54825 2.10882-.8917 2.61256-.047.069-.55603-.27035-1.13103-.75419-1.31892-1.1098-2.48796-1.13395-3.18779-.0658-.29328.4476-.82561 2.74788-1.18295 5.11172-.35734 2.36385-.73193 4.675-.83243 5.13589-.15584.71462.0453.98043 1.36651 1.80555.85209.53216 2.13043 1.73886 2.84075 2.68156 1.26694 1.68142 1.28453 1.74428.92541 3.30618l-.36608 1.59219h-3.02206c-3.39984 0-5.42053.70337-6.42507 2.2365-.53729.82-.51809 1.11435.38691 5.93326 1.04094 5.54272 1.31921 12.17402.56443 13.45034-.31981.54079-.42788.57319-.55898.1676zm117.77103-7.10857c1.4411-.70562 2.93554-1.83838 4.41394-3.34571 2.76222-2.81626 3.56531-3.17509 5.21362-2.32946l1.21117.62136 1.04607-1.37691c.57534-.7573 1.60554-1.67858 2.28934-2.0473 1.1441-.61691 1.31687-.62945 2.16585-.15714 1.1599.64528 1.35236 2.10327.46674 3.53593-1.26652 2.04883-4.68154 2.79062-6.82656 1.4828-1.85887-1.13336-2.75565-.90366-5.06505 1.29736-2.38391 2.27205-3.48603 2.90006-5.58551 3.18277l-1.50838.20311zm14.7486-5.21038c1.47829-.73849 1.54134-1.55581.13061-1.6932-.73897-.072-1.34905.15632-2.09497.78398-.57882.48704-1.0524 1.02296-1.0524 1.19093 0 .50746 1.7674.34242 3.01676-.28171zm147.31343 3.68766c.1313-.87569.36834-1.8344.52676-2.13045.16954-.3168 3.70733-1.75003 8.5982-3.48329 4.57059-1.61975 13.96659-4.97247 20.87999-7.45048 6.91341-2.47801 12.85438-4.59133 13.20215-4.69625.57992-.17498.61303-.0547.39988 1.45245-.12781.90378-.29859 1.86948-.37951 2.14602-.0809.27654-1.47918.99111-3.10729 1.58795-7.2782 2.66808-39.7947 14.16624-40.06179 14.16624-.16454 0-.19059-.7106-.0584-1.59219zm-76.60057-9.48265c-1.99318-1.99317-1.85371-3.90623.80544-11.04806 1.42271-3.82108 1.70226-2.72899.3861 1.50838-1.3116 4.2227-1.07835 6.54372.72657 7.22994 1.07387.40829 1.66432-.0329 2.49857-1.86682.75716-1.66448.84291-.66425.14256 1.66284-.8845 2.93899-2.97912 4.09385-4.55924 2.51372zm-135.23797-.50378c-2.23641-1.16079-3.29234-3.4102-3.29759-7.02473-.004-2.31709.19177-3.22828 1.43574-6.70391.7918-2.21229 1.98715-5.64107 2.65633-7.61953.66917-1.97844 1.33501-3.59995 1.47963-3.60334.48637-.0114-.17468 3.48119-1.48974 7.87091-.71799 2.39665-1.39352 5.18715-1.50118 6.20112-.37129 3.49652.8912 5.85919 3.34348 6.25714 1.05743.1716 1.34227.0602 2.2033-.86152.54389-.58223 1.26125-1.84588 1.59415-2.80812.52698-1.52322.61955-1.63096.71568-.83294.14557 1.20834-1.13067 5.81166-2.00217 7.2218-1.23979 2.00601-3.39866 2.80571-5.13763 1.90312zm346.79237-5.61072c.0422-7.96397-1.69902-12.00845-7.68127-17.84166l-2.0657-2.01425.53365-2.84608c.29349-1.56535.5972-2.91242.67491-2.99349.25327-.26423 3.5024 3.11463 4.97667 5.17532 4.96882 6.9454 6.65035 15.77405 4.51488 23.70462-.64972 2.41276-.97699 1.31923-.95314-3.18446zm-314.10063-1.11687c-.0133-4.87247-.393-6.75958-2.03019-10.09086-.99179-2.01805-2.0842-3.52626-4.08544-5.64043l-2.73166-2.88582.42943-2.57186c.23618-1.41452.49215-2.63696.56882-2.71654.0767-.0796.67753.37294 1.33526 1.00558 3.26581 3.14133 6.31465 8.47731 7.38109 12.91818.67141 2.79589.74544 7.9446.15369 10.6902-.74094 3.43783-1.01017 3.25103-1.021-.70845zm188.06592-.71614c-.18125-.69134-.43666-1.70949-.56759-2.26256-.52519-2.21842-2.82252-7.27724-4.19021-9.22705l-1.45116-2.06876-.69.86534c-.6415.80454-.78363.84015-2.02297.5069-1.90948-.51344-3.96493-1.78164-4.49602-2.77398-.39448-.73708-.37856-1.05866.11642-2.35479.90707-2.37514 1.72602-3.21582 3.13271-3.21582 3.91417 0 8.13056 5.01754 10.80184 12.85431 1.07121 3.14267 1.03129 3.20266 1.86305-2.79845 1.53549-11.0787 3.89131-14.66464 7.67754-11.68641.51068.40171 1.35761 1.3227 1.88202 2.04665l.9535 1.31627-.68245 1.73158c-.37536.95237-.73489 1.78409-.79901 1.84827-.0641.0642-.83681-.43327-1.71717-1.10545-3.42845-2.61782-4.71982-1.09331-5.81142 6.86047-.83336 6.07241-1.60025 9.29574-2.40241 10.0979-.90439.90441-1.22682.77631-1.59667-.63442zm-168.88922-1.17318c-2.00117-2.13627-1.93629-4.89258.25444-10.81006.92179-2.48987 1.67598-4.75287 1.67598-5.02888 0-.27601.12831-.50184.28513-.50184.3989 0-.0721 2.64783-1.09484 6.15482-1.03855 3.56122-1.0842 5.04788-.19955 6.49881.54451.89306.8744 1.08939 1.83053 1.08939 1.22049 0 1.58625-.37975 2.42138-2.51397l.3935-1.00558.0255 1.07681c.0356 1.50281-1.21664 4.682-2.08325 5.289-1.07028.74965-2.68061.63561-3.50881-.2485zm195.04281-2.44354c-.0715-5.43867-1.3549-8.66785-4.96603-12.49504l-2.11374-2.24019.33432-1.81434c.18389-.9979.42457-1.90293.53481-2.01118.11028-.10825 1.01946.68138 2.02046 1.75474 2.05327 2.20181 3.84969 5.50644 4.62978 8.5169.62685 2.41908.64244 7.26459.0308 9.64327l-.43079 1.67597-.0399-3.03013zm-138.55374-7.90536c-.25803-6.22472-1.47006-9.03283-5.76908-13.36618l-2.16151-2.17877.37678-2.43016c.20723-1.3366.48747-2.43017.62275-2.43017s1.17366 1.01241 2.30752 2.24981c3.51049 3.83109 6.04252 10.12426 6.04252 15.01822 0 1.82322-.63246 6.16651-.99376 6.8244-.13929.25364-.33064-1.40558-.42522-3.68715zm18.20001-2.4857c-.0396-5.02044-1.20062-7.95484-4.55382-11.50942l-2.17049-2.30083.33714-1.7777c.18542-.97774.41306-1.85363.50586-1.94644.28444-.28444 2.17121 1.68815 3.56706 3.72932.72806 1.06465 1.72126 2.95012 2.20712 4.18994.78513 2.00351.8841 2.72017.88986 6.44414.004 2.45147-.15283 4.53765-.3775 5.02793-.32758.71489-.38712.44209-.40523-1.85694zm24.87939 1.51111c-.63489-.41848-1.45895-1.49058-2.00746-2.61168-1.70424-3.48335-1.17704-7.14882 2.32939-16.19571.83176-2.14601 1.70982-4.67255 1.95124-5.61452.24142-.94198.58204-1.71269.75692-1.71269.4886 0 .004 3.22829-.98671 6.57403-2.31205 7.80758-2.64283 10.34357-1.65694 12.70313.51914 1.24248 2.24809 2.50726 3.4302 2.50929 1.25066.002 2.71604-1.5693 3.53497-3.79082.70241-1.90543.77281-1.98831.86684-1.0206.21939 2.25787-1.60164 7.40944-3.12509 8.84064-1.17281 1.1018-3.66856 1.25807-5.09336.31893zm163.32208-2.79756c-.43837-.43836-.98611-1.42814-1.21723-2.19951-.49938-1.66675-.11457-3.48149 1.92332-9.0705 1.50948-4.13978 1.90317-3.65832.62879.76895-1.55219 5.39237-1.41184 7.38538.5691 8.08203 1.09327.38448 1.83355-.1349 2.51463-1.7643.65628-1.57007.87379-1.1183.40126.83345-.69593 2.87458-1.77767 4.12325-3.58863 4.14234-.23883.003-.79287-.35409-1.23124-.79246zm-247.777-10.90763c5.48529-3.68908 8.56498-6.09315 11.20243-8.74483l1.75987-1.76936-1.08948-.79683c-1.50314-1.09936-1.92768-1.74781-1.92622-2.94223.002-1.58158 1.15787-3.16143 2.86594-3.91699 1.86688-.82581 2.67886-.59658 3.1712.89526.30478.92347.27563 1.51002-.14493 2.91694-.51964 1.73833-.51626 1.77002.26224 2.4584l.78867.69737-.63198 1.23186c-.62007 1.20865-.6476 1.22163-1.46064.6889-.82414-.53999-.84524-.52544-3.86853 2.66908-1.67192 1.76663-4.04779 3.87572-5.2797 4.68689-2.82618 1.86093-9.30723 5.25031-10.03944 5.25031-.30417 0 1.6716-1.49615 4.39057-3.32477zm13.94953-15.63567c-.5008-.60342-1.45997-.62037-1.94628-.0344-.4306.51884-.0364 1.13656 1.29406 2.02813.83104.55687.83887.55293.94465-.47565.0587-.57045-.0729-1.25358-.29243-1.51808zm45.22288 4.82129c-.11063-3.4839-.2128-3.99453-1.20061-6.00104-.63389-1.28763-1.92297-3.05763-3.12214-4.28695l-2.04247-2.09382.22837-1.82774c.12559-1.00526.33658-1.89463.46885-1.97638.40262-.24884 2.92007 2.55112 4.17241 4.64062 1.39064 2.32025 2.42509 5.33537 2.73002 7.95718.22377 1.92406-.32336 6.60591-.83134 7.11389-.15519.15519-.33658-1.43141-.40309-3.52576zm22.3696-2.90333c-.14394-.2329-.16553-1.28272-.048-2.33294.45366-4.05317-1.19401-8.3563-4.52245-11.8111l-2.01498-2.09147.34353-1.85832c.18894-1.02207.34353-1.93663.34353-2.03237 0-.45387 2.87243 2.69137 4.01643 4.39789 2.15635 3.21665 2.86191 5.80223 2.81415 10.3127-.0416 3.92524-.43625 6.21811-.93223 5.41561zm-79.61027-11.36533c.0177-6.25811-1.5335-9.96611-6.06491-14.49751l-2.05281-2.05282.40216-2.49299c.22119-1.37114.51965-2.49298.66325-2.49298.14359 0 1.11696.94273 2.16304 2.09496 5.53547 6.09722 7.56285 13.63539 5.83458 21.69405-.19885.92721-.4954 1.68584-.659 1.68584-.1636 0-.29244-1.77235-.28631-3.93855zm33.82366-6.20138c0-1.96355-.16737-4.36941-.37194-5.34637-.59621-2.84735-2.55262-6.20037-5.29817-9.08033l-2.48944-2.61134.36553-2.36157c.20105-1.29887.45472-2.45077.56372-2.55977.54257-.54256 4.66452 4.53932 6.28391 7.7473 2.08646 4.13325 2.90001 10.6585 1.91619 15.36903-.63335 3.03241-.9698 2.63103-.9698-1.15695z"/>
</svg>
