<?xml version="1.0" encoding="UTF-8" standalone="no"?>
<!-- Generator: Adobe Illustrator 12.0.1, SVG Export Plug-In . SVG Version: 6.00 Build 51448)  -->
<svg
   xmlns:dc="http://purl.org/dc/elements/1.1/"
   xmlns:cc="http://web.resource.org/cc/"
   xmlns:rdf="http://www.w3.org/1999/02/22-rdf-syntax-ns#"
   xmlns:svg="http://www.w3.org/2000/svg"
   xmlns="http://www.w3.org/2000/svg"
   xmlns:sodipodi="http://sodipodi.sourceforge.net/DTD/sodipodi-0.dtd"
   xmlns:inkscape="http://www.inkscape.org/namespaces/inkscape"
   version="1.1"
   id="Layer_1"
   width="214.217"
   height="306.635"
   viewBox="0 0 214.217 306.635"
   style="overflow:visible;enable-background:new 0 0 214.217 306.635;"
   xml:space="preserve"
   sodipodi:version="0.32"
   inkscape:version="0.45.1"
   sodipodi:docname="Lysergsäurediethylamid (LSD).svg"
   inkscape:output_extension="org.inkscape.output.svg.inkscape"
   sodipodi:docbase="C:\"><metadata
   id="metadata126"><rdf:RDF><cc:Work
       rdf:about=""><dc:format>image/svg+xml</dc:format><dc:type
         rdf:resource="http://purl.org/dc/dcmitype/StillImage" /></cc:Work></rdf:RDF></metadata><defs
   id="defs124" /><sodipodi:namedview
   inkscape:window-height="579"
   inkscape:window-width="801"
   inkscape:pageshadow="2"
   inkscape:pageopacity="0.0"
   guidetolerance="10.0"
   gridtolerance="10.0"
   objecttolerance="10.0"
   borderopacity="1.0"
   bordercolor="#666666"
   pagecolor="#ffffff"
   id="base"
   inkscape:zoom="1.2327359"
   inkscape:cx="107.1085"
   inkscape:cy="153.3175"
   inkscape:window-x="132"
   inkscape:window-y="132"
   inkscape:current-layer="Layer_1" />
<path
   style="fill:#231f20"
   d="M 79.2588,278.73317 L 77.64475,279.68317 L 77.64475,241.01912 L 79.2588,241.96912 L 79.2588,278.73317 z "
   id="polygon3" />
<path
   style="fill:#231f20"
   d="M 83.296299,244.77067 L 84.911299,244.77067 L 84.911299,275.93162 L 83.296299,275.93162 L 83.296299,244.77067 z "
   id="rect5" />
<path
   style="fill:#231f20"
   d="M 111.0838,297.11662 L 111.0838,298.96912 L 77.64475,279.68317 L 79.2588,278.73317 L 111.0838,297.11662 z "
   id="polygon7" />
<path
   style="fill:#231f20"
   d="M 142.95725,278.73317 L 143.76475,279.20817 L 143.90725,280.06317 L 111.0838,298.96912 L 111.0838,297.11662 L 142.95725,278.73317 z "
   id="polygon9" />
<path
   style="fill:#231f20"
   d="M 137.6838,275.21912 L 138.49225,276.64412 L 111.51225,292.22317 L 110.70475,290.84567 L 137.6838,275.21912 z "
   id="polygon11" />
<path
   style="fill:#231f20"
   d="M 111.0838,223.58567 L 111.0838,222.63567 L 111.89225,222.20817 L 143.76475,240.59162 L 143.76475,241.49412 L 142.95725,241.96912 L 111.0838,223.58567 z "
   id="polygon13" />
<path
   style="fill:#231f20"
   d="M 110.70475,229.90412 L 111.51225,228.47912 L 138.49225,244.05817 L 137.6838,245.48317 L 110.70475,229.90412 z "
   id="polygon15" />
<path
   style="fill:#231f20"
   d="M 79.2588,241.96912 L 77.64475,241.01912 L 110.27725,222.20817 L 111.0838,222.63567 L 111.0838,223.58567 L 79.2588,241.96912 z "
   id="polygon17" />
<path
   style="fill:#231f20"
   d="M 142.95725,241.96912 L 143.76475,241.49412 L 144.5713,241.96912 L 144.5713,278.54412 L 143.76475,279.20817 L 142.95725,278.73317 L 142.95725,241.96912 z "
   id="polygon19" />
<path
   style="fill:#231f20"
   d="M 175.58975,222.20817 L 176.3963,222.63567 L 176.20725,223.68162 L 144.5713,241.96912 L 143.76475,241.49412 L 143.76475,240.59162 L 175.58975,222.20817 z "
   id="polygon21" />
<path
   style="fill:#231f20"
   d="M 175.58975,185.44412 L 177.20475,184.49412 L 177.20475,222.35067 L 176.3963,222.63567 L 175.58975,222.20817 L 175.58975,185.44412 z "
   id="polygon23" />
<path
   style="fill:#231f20"
   d="M 143.76475,167.01317 L 143.76475,166.11067 L 145.5213,166.20662 L 177.20475,184.49412 L 175.58975,185.44412 L 143.76475,167.01317 z "
   id="polygon25" />
<path
   style="fill:#231f20"
   d="M 111.89225,185.44412 L 111.0838,184.96912 L 111.0838,184.01912 L 142.95725,165.63567 L 143.76475,166.11067 L 143.76475,167.01317 L 111.89225,185.44412 z "
   id="polygon27" />
<path
   style="fill:#231f20"
   d="M 111.89225,222.20817 L 111.0838,222.63567 L 110.27725,222.20817 L 110.27725,185.44412 L 111.0838,184.96912 L 111.89225,185.44412 L 111.89225,222.20817 z "
   id="polygon29" />
<g
   id="g31"
   transform="matrix(0.95,0,0,0.95,5.35545,7.665875)">
	<path
   style="fill:#231f20"
   d="M 138.872,136.534 L 138.872,119.346 L 141.212,119.346 L 150.216,132.835 L 150.216,119.346 L 152.404,119.346 L 152.404,136.534 L 150.064,136.534 L 141.06,123.045 L 141.06,136.534 L 138.872,136.534 L 138.872,136.534 z "
   id="path33" />
</g>
<path
   style="fill:#231f20"
   d="M 142.95725,139.51067 L 144.5713,139.51067 L 144.5713,164.49567 L 143.76475,166.11067 L 142.95725,165.63567 L 142.95725,139.51067 z "
   id="polygon35" />
<path
   style="fill:#231f20"
   d="M 111.0838,110.48817 L 111.0838,108.63567 L 134.3588,122.03067 L 133.55225,123.45567 L 111.0838,110.48817 z "
   id="polygon37" />
<path
   style="fill:#231f20"
   d="M 79.2588,128.87067 L 78.45225,128.39567 L 78.49975,127.44567 L 111.0838,108.63567 L 111.0838,110.48817 L 79.2588,128.87067 z "
   id="polygon39" />
<path
   style="fill:#231f20"
   d="M 79.2588,165.63567 L 77.64475,166.58567 L 77.64475,128.91817 L 78.45225,128.39567 L 79.2588,128.87067 L 79.2588,165.63567 z "
   id="polygon41" />
<path
   style="fill:#231f20"
   d="M 111.0838,184.01912 L 111.0838,184.96912 L 110.27725,185.44412 L 77.64475,166.58567 L 79.2588,165.63567 L 111.0838,184.01912 z "
   id="polygon43" />
<path
   style="fill:#231f20"
   d="M 111.51225,177.70067 L 110.70475,179.12567 L 83.72475,163.54567 L 84.53225,162.12067 L 111.51225,177.70067 z "
   id="polygon45" />
<g
   id="g47"
   transform="matrix(0.95,0,0,0.95,5.35545,7.665875)">
	<path
   style="fill:#231f20"
   d="M 173.381,156.385 L 173.381,139.197 L 175.662,139.197 L 175.662,146.26 L 184.553,146.26 L 184.553,139.197 L 186.834,139.197 L 186.834,156.385 L 184.553,156.385 L 184.553,148.291 L 175.662,148.291 L 175.662,156.385 L 173.381,156.385 z "
   id="path49" />
</g>
<path
   style="fill:#231f20"
   d="M 164.0463,150.19817 L 167.65725,156.46912 L 145.5213,166.20662 L 143.76475,166.11067 L 144.5713,164.49567 L 164.0463,150.19817 z "
   id="polygon51" />
<g
   id="g53"
   transform="matrix(0.95,0,0,0.95,5.35545,7.665875)">
	<path
   style="fill:#231f20"
   d="M 185.538,110.657 L 187.819,111.231 C 187.342,113.101 186.486,114.527 185.25,115.508 C 184.013,116.489 182.501,116.981 180.714,116.981 C 178.864,116.981 177.36,116.604 176.2,115.849 C 175.041,115.095 174.159,114.001 173.554,112.571 C 172.949,111.141 172.647,109.603 172.647,107.962 C 172.647,106.172 172.989,104.609 173.67,103.276 C 174.354,101.943 175.324,100.929 176.585,100.238 C 177.845,99.547 179.231,99.2 180.745,99.2 C 182.462,99.2 183.905,99.638 185.075,100.514 C 186.246,101.391 187.06,102.622 187.521,104.211 L 185.287,104.738 C 184.889,103.488 184.312,102.578 183.556,102.008 C 182.8,101.438 181.847,101.153 180.701,101.153 C 179.383,101.153 178.281,101.469 177.395,102.102 C 176.51,102.735 175.887,103.584 175.529,104.651 C 175.171,105.718 174.991,106.817 174.991,107.95 C 174.991,109.411 175.204,110.686 175.628,111.776 C 176.054,112.866 176.714,113.68 177.61,114.219 C 178.506,114.758 179.477,115.028 180.522,115.028 C 181.792,115.028 182.868,114.661 183.749,113.926 C 184.63,113.191 185.225,112.103 185.538,110.657 z "
   id="path55" />
	<path
   style="fill:#231f20"
   d="M 190.713,116.685 L 190.713,99.497 L 192.994,99.497 L 192.994,106.56 L 201.885,106.56 L 201.885,99.497 L 204.166,99.497 L 204.166,116.685 L 201.885,116.685 L 201.885,108.591 L 192.994,108.591 L 192.994,116.685 L 190.713,116.685 z "
   id="path57" />
</g>
<g
   id="g59"
   transform="matrix(0.95,0,0,0.95,5.35545,7.665875)">
	<path
   style="fill:#231f20"
   d="M 205.764,117.778 L 207.342,117.559 C 207.524,118.455 207.834,119.101 208.27,119.497 C 208.706,119.892 209.242,120.09 209.877,120.09 C 210.629,120.09 211.263,119.832 211.775,119.318 C 212.288,118.802 212.545,118.164 212.545,117.402 C 212.545,116.676 212.307,116.078 211.828,115.606 C 211.351,115.134 210.745,114.899 210.01,114.899 C 209.709,114.899 209.334,114.958 208.887,115.075 L 209.065,113.684 C 209.17,113.696 209.256,113.702 209.321,113.702 C 209.995,113.702 210.602,113.527 211.141,113.176 C 211.681,112.825 211.952,112.284 211.952,111.553 C 211.952,110.974 211.755,110.494 211.36,110.115 C 210.966,109.735 210.458,109.545 209.835,109.545 C 209.218,109.545 208.704,109.739 208.292,110.127 C 207.88,110.515 207.616,111.097 207.499,111.873 L 205.921,111.592 C 206.114,110.53 206.554,109.707 207.241,109.124 C 207.927,108.54 208.78,108.248 209.802,108.248 C 210.505,108.248 211.154,108.398 211.746,108.7 C 212.339,109.001 212.792,109.412 213.106,109.932 C 213.419,110.453 213.577,111.005 213.577,111.59 C 213.577,112.146 213.427,112.652 213.128,113.108 C 212.829,113.564 212.388,113.926 211.802,114.196 C 212.564,114.372 213.156,114.737 213.581,115.29 C 214.005,115.845 214.218,116.537 214.218,117.369 C 214.218,118.495 213.806,119.448 212.985,120.23 C 212.164,121.012 211.125,121.404 209.869,121.404 C 208.735,121.404 207.795,121.067 207.047,120.395 C 206.295,119.721 205.87,118.85 205.764,117.778 z "
   id="path61" />
</g>
<path
   style="fill:#231f20"
   d="M 167.22975,113.90817 L 168.03725,115.33317 L 153.92975,123.45567 L 153.1213,122.07912 L 167.22975,113.90817 z "
   id="polygon63" />
<path
   style="fill:#231f20"
   d="M 45.01225,113.19567 L 46.62725,105.73817 L 78.49975,127.44567 L 78.45225,128.39567 L 77.64475,128.91817 L 45.01225,113.19567 z "
   id="polygon65" />
<g
   id="g67"
   transform="matrix(0.95,0,0,0.95,5.35545,7.665875)">
	<path
   style="fill:#231f20"
   d="M 0,128.169 C 0,125.316 0.766,123.084 2.298,121.471 C 3.83,119.857 5.808,119.05 8.231,119.05 C 9.818,119.05 11.248,119.429 12.522,120.187 C 13.796,120.946 14.767,122.002 15.436,123.358 C 16.105,124.714 16.438,126.252 16.438,127.97 C 16.438,129.713 16.086,131.272 15.383,132.647 C 14.68,134.022 13.683,135.064 12.393,135.771 C 11.103,136.478 9.712,136.832 8.219,136.832 C 6.601,136.832 5.155,136.441 3.881,135.66 C 2.607,134.879 1.642,133.811 0.985,132.46 C 0.328,131.109 0,129.678 0,128.169 z M 2.344,128.198 C 2.344,130.268 2.901,131.899 4.015,133.091 C 5.129,134.283 6.527,134.878 8.207,134.878 C 9.919,134.878 11.328,134.276 12.435,133.073 C 13.541,131.87 14.094,130.163 14.094,127.952 C 14.094,126.554 13.858,125.333 13.385,124.29 C 12.912,123.247 12.22,122.438 11.309,121.864 C 10.398,121.29 9.376,121.003 8.243,121.003 C 6.633,121.003 5.247,121.556 4.086,122.661 C 2.925,123.766 2.344,125.612 2.344,128.198 z "
   id="path69" />
</g>
<path
   style="fill:#231f20"
   d="M 23.58975,126.59162 L 22.78225,125.16662 L 48.24225,110.48817 L 49.04975,111.86662 L 23.58975,126.59162 z "
   id="polygon71" />
<path
   style="fill:#231f20"
   d="M 20.73975,121.69817 L 19.93225,120.27317 L 45.39225,105.59567 L 46.19975,106.97317 L 20.73975,121.69817 z "
   id="polygon73" />
<g
   id="g75"
   transform="matrix(0.95,0,0,0.95,5.35545,7.665875)">
	<path
   style="fill:#231f20"
   d="M 35.772,77.034 L 35.772,59.847 L 38.112,59.847 L 47.116,73.336 L 47.116,59.847 L 49.304,59.847 L 49.304,77.035 L 46.964,77.035 L 37.96,63.546 L 37.96,77.035 L 35.772,77.035 L 35.772,77.034 z "
   id="path77" />
</g>
<path
   style="fill:#231f20"
   d="M 45.01225,82.985675 L 46.62725,82.985675 L 46.62725,105.73817 L 45.01225,113.19567 L 45.01225,82.985675 z "
   id="polygon79" />
<g
   id="g81"
   transform="matrix(0.95,0,0,0.95,5.35545,7.665875)">
	<path
   style="fill:#231f20"
   d="M 178.122,301.185 L 178.122,283.997 L 180.462,283.997 L 189.466,297.486 L 189.466,283.997 L 191.654,283.997 L 191.654,301.185 L 189.314,301.185 L 180.31,287.696 L 180.31,301.185 L 178.122,301.185 z "
   id="path83" />
	<path
   style="fill:#231f20"
   d="M 195.563,301.185 L 195.563,283.997 L 197.844,283.997 L 197.844,291.06 L 206.735,291.06 L 206.735,283.997 L 209.016,283.997 L 209.016,301.185 L 206.735,301.185 L 206.735,293.091 L 197.844,293.091 L 197.844,301.185 L 195.563,301.185 z "
   id="path85" />
</g>
<path
   style="fill:#231f20"
   d="M 172.73975,284.00662 L 172.40725,285.57317 L 143.90725,280.06317 L 143.76475,279.20817 L 144.5713,278.54412 L 172.73975,284.00662 z "
   id="polygon87" />
<path
   style="fill:#231f20"
   d="M 200.8588,252.08567 L 198.91225,252.22912 L 176.20725,223.68162 L 176.3963,222.63567 L 177.20475,222.35067 L 200.8588,252.08567 z "
   id="polygon89" />
<path
   style="fill:#231f20"
   d="M 193.68725,252.13317 L 192.45225,253.17912 L 174.40225,230.47317 L 175.63725,229.47567 L 193.68725,252.13317 z "
   id="polygon91" />
<path
   style="fill:#231f20"
   d="M 187.60725,275.02912 L 186.18225,274.22067 L 198.91225,252.22912 L 200.8588,252.08567 L 187.60725,275.02912 z "
   id="polygon93" />
<path
   style="fill:#231f20"
   d="M 12.33225,53.488175 L 13.9463,52.538175 L 36.41475,65.505675 L 35.60725,66.883175 L 12.33225,53.488175 z "
   id="polygon95" />
<path
   style="fill:#231f20"
   d="M 77.64475,52.538175 L 79.2588,53.488175 L 55.9838,66.883175 L 55.17725,65.505675 L 77.64475,52.538175 z "
   id="polygon97" />
<g
   id="g99"
   transform="matrix(0.95,0,0,0.95,5.35545,7.665875)">
	<path
   style="fill:#231f20"
   d="M 13.688,11.457 L 15.969,12.031 C 15.493,13.901 14.636,15.327 13.4,16.308 C 12.163,17.289 10.65,17.781 8.863,17.781 C 7.013,17.781 5.509,17.404 4.35,16.649 C 3.191,15.895 2.309,14.801 1.704,13.371 C 1.099,11.94 0.797,10.403 0.797,8.762 C 0.797,6.972 1.138,5.409 1.821,4.076 C 2.504,2.743 3.475,1.729 4.736,1.038 C 5.995,0.347 7.382,0 8.896,0 C 10.613,0 12.056,0.438 13.226,1.314 C 14.397,2.191 15.212,3.422 15.672,5.011 L 13.438,5.538 C 13.04,4.288 12.463,3.378 11.707,2.808 C 10.95,2.238 9.998,1.953 8.852,1.953 C 7.534,1.953 6.432,2.269 5.546,2.902 C 4.66,3.535 4.038,4.385 3.679,5.451 C 3.32,6.517 3.141,7.617 3.141,8.75 C 3.141,10.211 3.353,11.486 3.778,12.576 C 4.203,13.666 4.863,14.48 5.76,15.02 C 6.657,15.56 7.627,15.829 8.672,15.829 C 9.943,15.829 11.018,15.462 11.899,14.727 C 12.78,13.992 13.375,12.902 13.688,11.457 z "
   id="path101" />
	<path
   style="fill:#231f20"
   d="M 18.863,17.484 L 18.863,0.297 L 21.144,0.297 L 21.144,7.36 L 30.035,7.36 L 30.035,0.297 L 32.316,0.297 L 32.316,17.485 L 30.035,17.485 L 30.035,9.391 L 21.144,9.391 L 21.144,17.485 L 18.863,17.485 L 18.863,17.484 z "
   id="path103" />
</g>
<g
   id="g105"
   transform="matrix(0.95,0,0,0.95,5.35545,7.665875)">
	<path
   style="fill:#231f20"
   d="M 33.914,18.578 L 35.492,18.359 C 35.675,19.255 35.984,19.901 36.42,20.297 C 36.857,20.692 37.392,20.89 38.027,20.89 C 38.78,20.89 39.413,20.632 39.926,20.118 C 40.439,19.602 40.695,18.964 40.695,18.202 C 40.695,17.476 40.457,16.878 39.979,16.406 C 39.502,15.934 38.896,15.699 38.16,15.699 C 37.859,15.699 37.485,15.758 37.038,15.875 L 37.215,14.484 C 37.321,14.496 37.406,14.502 37.471,14.502 C 38.145,14.502 38.752,14.327 39.292,13.976 C 39.832,13.625 40.102,13.084 40.102,12.353 C 40.102,11.774 39.905,11.294 39.511,10.915 C 39.117,10.535 38.609,10.345 37.986,10.345 C 37.369,10.345 36.854,10.539 36.443,10.927 C 36.032,11.315 35.767,11.897 35.65,12.673 L 34.072,12.392 C 34.265,11.33 34.706,10.507 35.392,9.924 C 36.078,9.34 36.932,9.048 37.953,9.048 C 38.657,9.048 39.306,9.198 39.898,9.5 C 40.49,9.801 40.943,10.212 41.258,10.732 C 41.571,11.253 41.729,11.805 41.729,12.39 C 41.729,12.946 41.58,13.452 41.281,13.908 C 40.982,14.364 40.54,14.726 39.954,14.996 C 40.716,15.172 41.308,15.537 41.733,16.09 C 42.157,16.645 42.37,17.337 42.37,18.169 C 42.37,19.295 41.959,20.248 41.137,21.03 C 40.315,21.812 39.276,22.204 38.02,22.204 C 36.887,22.204 35.946,21.867 35.198,21.195 C 34.446,20.521 34.019,19.649 33.914,18.578 z "
   id="path107" />
</g>
<path
   style="fill:#231f20"
   d="M 12.33225,26.650675 L 13.9463,26.650675 L 13.9463,52.538175 L 12.33225,53.488175 L 12.33225,26.650675 z "
   id="polygon109" />
<g
   id="g111"
   transform="matrix(0.95,0,0,0.95,5.35545,7.665875)">
	<path
   style="fill:#231f20"
   d="M 82.438,11.457 L 84.719,12.031 C 84.243,13.901 83.386,15.327 82.15,16.308 C 80.913,17.289 79.4,17.781 77.613,17.781 C 75.763,17.781 74.259,17.404 73.1,16.649 C 71.941,15.895 71.059,14.801 70.454,13.371 C 69.849,11.94 69.547,10.403 69.547,8.762 C 69.547,6.972 69.888,5.409 70.571,4.076 C 71.254,2.743 72.225,1.729 73.486,1.038 C 74.745,0.347 76.132,0 77.646,0 C 79.363,0 80.806,0.438 81.976,1.314 C 83.147,2.191 83.962,3.422 84.422,5.011 L 82.188,5.538 C 81.79,4.288 81.213,3.378 80.457,2.808 C 79.7,2.238 78.748,1.953 77.602,1.953 C 76.284,1.953 75.182,2.269 74.296,2.902 C 73.411,3.535 72.789,4.384 72.43,5.451 C 72.071,6.518 71.892,7.617 71.892,8.75 C 71.892,10.211 72.104,11.486 72.529,12.576 C 72.954,13.666 73.614,14.48 74.511,15.019 C 75.408,15.558 76.378,15.828 77.423,15.828 C 78.694,15.828 79.769,15.461 80.65,14.726 C 81.531,13.991 82.125,12.902 82.438,11.457 z "
   id="path113" />
	<path
   style="fill:#231f20"
   d="M 87.613,17.484 L 87.613,0.297 L 89.894,0.297 L 89.894,7.36 L 98.785,7.36 L 98.785,0.297 L 101.066,0.297 L 101.066,17.485 L 98.785,17.485 L 98.785,9.391 L 89.894,9.391 L 89.894,17.485 L 87.613,17.485 L 87.613,17.484 z "
   id="path115" />
</g>
<g
   id="g117"
   transform="matrix(0.95,0,0,0.95,5.35545,7.665875)">
	<path
   style="fill:#231f20"
   d="M 102.664,18.578 L 104.242,18.359 C 104.425,19.255 104.734,19.901 105.17,20.297 C 105.607,20.692 106.142,20.89 106.777,20.89 C 107.53,20.89 108.163,20.632 108.676,20.118 C 109.189,19.602 109.445,18.964 109.445,18.202 C 109.445,17.476 109.207,16.878 108.729,16.406 C 108.252,15.934 107.646,15.699 106.91,15.699 C 106.609,15.699 106.235,15.758 105.788,15.875 L 105.965,14.484 C 106.071,14.496 106.156,14.502 106.221,14.502 C 106.895,14.502 107.502,14.327 108.042,13.976 C 108.582,13.625 108.852,13.084 108.852,12.353 C 108.852,11.774 108.655,11.294 108.261,10.915 C 107.867,10.535 107.359,10.345 106.736,10.345 C 106.119,10.345 105.604,10.539 105.193,10.927 C 104.782,11.315 104.517,11.897 104.4,12.673 L 102.822,12.392 C 103.015,11.33 103.456,10.507 104.142,9.924 C 104.828,9.34 105.682,9.048 106.703,9.048 C 107.407,9.048 108.056,9.198 108.648,9.5 C 109.24,9.801 109.693,10.212 110.008,10.732 C 110.321,11.253 110.479,11.805 110.479,12.39 C 110.479,12.946 110.33,13.452 110.031,13.908 C 109.732,14.364 109.29,14.726 108.704,14.996 C 109.466,15.172 110.058,15.537 110.483,16.09 C 110.907,16.645 111.12,17.337 111.12,18.169 C 111.12,19.295 110.709,20.248 109.887,21.03 C 109.065,21.812 108.026,22.204 106.77,22.204 C 105.637,22.204 104.696,21.867 103.948,21.195 C 103.196,20.521 102.769,19.649 102.664,18.578 z "
   id="path119" />
</g>
<path
   style="fill:#231f20"
   d="M 77.64475,26.650675 L 79.2588,26.650675 L 79.2588,53.488175 L 77.64475,52.538175 L 77.64475,26.650675 z "
   id="polygon121" />
</svg>